<?xml version="1.0" encoding="UTF-8" standalone="no"?>
<!-- Created with Inkscape (http://www.inkscape.org/) -->

<svg
   xmlns:dc="http://purl.org/dc/elements/1.1/"
   xmlns:cc="http://creativecommons.org/ns#"
   xmlns:rdf="http://www.w3.org/1999/02/22-rdf-syntax-ns#"
   xmlns:svg="http://www.w3.org/2000/svg"
   xmlns="http://www.w3.org/2000/svg"
   xmlns:sodipodi="http://sodipodi.sourceforge.net/DTD/sodipodi-0.dtd"
   xmlns:inkscape="http://www.inkscape.org/namespaces/inkscape"
   width="512"
   height="512"
   viewBox="0 0 135.46666 135.46667"
   version="1.1"
   id="svg8"
   sodipodi:docname="biccamera.svg"
   inkscape:version="0.92.4 (5da689c313, 2019-01-14)">
  <defs
     id="defs2" />
  <sodipodi:namedview
     id="base"
     pagecolor="#ffffff"
     bordercolor="#666666"
     borderopacity="1.0"
     inkscape:pageopacity="0.0"
     inkscape:pageshadow="2"
     inkscape:zoom="0.98994949"
     inkscape:cx="183.57355"
     inkscape:cy="200.96795"
     inkscape:document-units="px"
     inkscape:current-layer="layer1"
     showgrid="false"
     units="px"
     inkscape:window-width="1366"
     inkscape:window-height="745"
     inkscape:window-x="-8"
     inkscape:window-y="-8"
     inkscape:window-maximized="1" />
  <metadata
     id="metadata5">
    <rdf:RDF>
      <cc:Work
         rdf:about="">
        <dc:format>image/svg+xml</dc:format>
        <dc:type
           rdf:resource="http://purl.org/dc/dcmitype/StillImage" />
        <dc:title></dc:title>
      </cc:Work>
    </rdf:RDF>
  </metadata>
  <g
     inkscape:label="レイヤー 1"
     inkscape:groupmode="layer"
     id="layer1"
     transform="translate(0,-161.53331)">
    <path
       style="fill:#e60012;fill-opacity:1;stroke-width:0.40784973"
       d="m 4.078495,231.28005 v 3.05886 3.05888 H 2.039246 -1.0000001e-6 v 5.09814 5.09812 H 2.039246 4.078495 v 6.29857 c 0,6.04638 -0.03635,6.32395 -0.906506,6.93342 -0.498547,0.34918 -1.416197,0.63486 -2.039249,0.63486 H -1.0000001e-6 v 5.14751 5.14752 L 6.281843,271.58785 c 6.004584,-0.1613 6.388027,-0.22313 8.65884,-1.38447 2.062002,-1.05454 2.538208,-1.53255 3.607716,-3.62284 1.223011,-2.39028 1.23384,-2.46999 1.436235,-10.59533 l 0.203925,-8.18727 h 2.651022 2.651024 l 0.116304,6.11774 c 0.110632,5.8341 0.07522,6.15083 -0.759143,6.83148 -0.481219,0.39256 -1.405487,0.71374 -2.053585,0.71374 h -1.178147 v 5.09812 5.09813 h 5.237525 c 8.053085,0 11.006974,-1.28115 13.063139,-5.66609 l 1.072197,-2.28698 0.12745,-13.15315 0.127449,-13.15317 H 30.614212 19.984629 v -3.05888 -3.05886 H 12.03156 Z m 68.926587,0 v 8.15698 c 0,4.84966 -0.156399,8.15702 -0.385555,8.15702 -0.211984,0 -5.947366,-3.57556 -12.745289,-7.94513 l -12.35975,-7.9443 -0.114701,5.36417 c -0.08578,4.02652 0.01589,5.43985 0.407849,5.6685 0.287196,0.16751 5.356551,3.38817 11.265249,7.15727 l 10.743477,6.853 -1.159022,0.93838 c -1.789026,1.44868 -5.01007,2.90533 -7.433707,3.36157 -1.208273,0.22746 -4.833016,0.41342 -8.055004,0.41342 h -5.85806 v 5.0981 5.09892 l 9.890356,-0.008 c 13.360388,-0.009 16.939317,-0.83041 22.444451,-5.1499 l 2.35789,-1.85044 2.94416,1.84327 2.94417,1.8441 0.11715,-5.1714 c 0.11006,-4.86065 0.0647,-5.21437 -0.75357,-5.88116 -0.86152,-0.70197 -0.86309,-0.7297 -0.14104,-2.65103 0.61542,-1.63747 0.75446,-3.61822 0.88579,-12.64731 l 0.15534,-10.70607 h -7.57471 z m 21.616024,0 v 5.09812 5.09813 h 20.392494 20.39249 v -5.09813 -5.09812 H 115.0136 Z m 0,12.2355 v 5.09812 5.09812 h 12.643354 12.64333 v 3.45237 c 0,2.99585 -0.10405,3.50821 -0.78862,3.87459 -0.49188,0.26325 -5.25171,0.42216 -12.64333,0.42216 H 94.621106 v 5.11883 5.11883 l 16.823804,-0.1227 16.82381,-0.1227 2.2121,-1.2546 c 1.69282,-0.96018 2.50652,-1.77387 3.46672,-3.46674 l 1.25461,-2.21208 0.13226,-10.50211 0.13226,-10.50213 h -20.42275 z"
       id="path4711-2"
       inkscape:connector-curvature="0" />
    <path
       style="fill:#e60012;fill-opacity:1;stroke-width:0.40784973"
       d="m 2.273069,186.7774 0.0096,16.8238 c 0.0082,15.4841 0.06855,16.9537 0.761532,18.45519 1.016421,2.20228 2.451475,3.43731 5.027225,4.32704 1.942818,0.67115 3.752477,0.74521 18.366778,0.75753 l 16.212025,0.0139 v -4.89419 -4.89418 H 30.052253 c -15.226438,0 -14.431874,0.26293 -14.664269,-4.85437 l -0.149754,-3.30263 h 13.705979 13.70598 v -4.8942 -4.8942 H 28.987225 15.32426 v -6.32166 -6.32167 H 8.798665 Z m 21.208981,0 v 5.30205 5.30205 h 4.078496 4.078496 v -5.30205 -5.30205 h -4.078496 z m 11.011941,0 v 5.30205 5.30205 h 4.078497 4.078495 v -5.30205 -5.30205 h -4.078495 z m 61.585295,0 v 6.23086 c 0,7.01993 -0.31442,8.04387 -2.47021,8.04387 h -1.20046 v 4.72931 4.72932 l 5.63823,-0.14105 c 5.324024,-0.13318 5.771344,-0.20894 8.031124,-1.36535 3.26067,-1.6686 4.29507,-3.64441 4.5867,-8.75921 l 0.2103,-3.6794 h 3.81802 3.81801 v 9.58447 c 0,9.04067 -0.0463,9.63075 -0.81568,10.40016 -0.77944,0.77948 -1.35949,0.81569 -13.05119,0.81569 H 92.408636 v 4.8942 4.89419 h 16.443844 c 18.37299,0 19.55918,-0.13935 22.01432,-2.59446 2.24022,-2.24019 2.3268,-3.0264 2.3268,-21.20978 v -16.57286 h -18.55717 z m -46.902707,13.45904 v 7.13738 7.13735 h 4.282422 4.282426 v -7.13735 -7.13738 h -4.282428 z m 11.41978,0 v 7.13738 7.13735 h 4.28243 4.282414 v -7.13735 -7.13738 h -4.282414 z m 13.051196,0 v 7.46716 c 0,5.80219 -0.128868,7.6438 -0.578317,8.25895 -0.545499,0.7466 -1.242186,0.79909 -12.235491,0.91208 l -11.65717,0.11947 v 5.10368 5.1037 l 14.580616,-0.13704 c 12.738613,-0.12008 14.811953,-0.22852 16.410373,-0.85554 2.34204,-0.9187 3.96723,-2.45323 5.04714,-4.76434 0.78005,-1.66943 0.87115,-2.7109 1.00449,-11.52175 l 0.14659,-9.68643 h -6.35911 z"
       id="path4711"
       inkscape:connector-curvature="0" />
  </g>
</svg>
