<svg xmlns="http://www.w3.org/2000/svg" viewBox="0 0 128 128"><defs><style>.a{fill:#fe082b}.b{fill:#fef6f7}</style></defs><path d="M32 90a20 20 0 0 1-18-6c-3-3-3-8-2-11 1-9 3-17 2-26-1-4 4-8 10-10a14 14 0 0 1-5-6c-2-7 1-12 9-12h5c2 0 5 1 7-1 3-1 1-4 2-7 0-2 6-7 8-6 5 2 10 3 13 7 2-4 9-7 13-5s9 3 8 10c-1 2 1 3 3 3h12a12 12 0 0 1 12 9c1 4-3 9-7 10a76 76 0 0 1-23 0c0 8 4 9 11 8 4 0 8 2 12 5s4 8 0 12c-2 2-2 3 0 6 2 4 4 8-1 12-2 1-1 2-1 3 1 4 3 9 1 14-1 2 1 3 2 3 7 2 9 7 10 13 0 1 1 2-1 3-4 1-9 4-13 4-9-2-18 0-28 0-15 0-30 1-44 5-5 1-9-3-12-7v-10c1-2 4-2 6-2 5 0 8-2 7-8l2-10zm30-15c-2-3-4-2-7-2-2 0-4 2-6 1-2 0-4 0-4-2s0-4 2-6l4-2c3-1 7-2 7-6 0-3-5-3-7-4l-2-2c0-2 0-3 2-4l5-1c1 0 3 0 3-2l-2-2c-2-1-2-2-2-3a22 22 0 0 0 2-6c0-3 3-3 5-3 4 0 2 3 2 4l-1 6c-1 2-1 4 1 4 5 0 4 3 4 6l-3 11c-1 4 2 5 5 6 4 1 3-2 3-4l4-3c6-2 12-1 18-1 2 0 4 1 4-2 0-2-2-2-3-3a24 24 0 0 0-14 0c-3 1-7 1-7-1 0-5 0-9-5-12-1-1 1-7 3-10 1-2 4-1 6-1 6 2 12 1 18 2 2 0 6 1 6-3 0-3-3-3-6-3H86c-3-1-7 1-9-1s0-5 0-8c0-2-1-3-3-4s-4 0-4 3l-2 5c-1 5-5 4-9 4-4-1-3-4-3-7a11 11 0 0 0 0-2c-1-3-3-4-6-4-2 0-1 3-1 4a28 28 0 0 0 0 5c0 3-1 4-4 4H29c-1 0-3-1-3 1l2 4 6 1c4-1 8-2 12-1 2 1 6 6 5 10-1 2-4 2-6 2-7 0-13 0-20 2-3 1-4 2-4 5a26 26 0 0 1 0 9l-2 15c-1 6 4 11 10 9l33-8zm2 13v-1l-13 1c-12 1-14 3-14 15 0 9 0 9-9 11-1 0-4 0-4 2s3 3 5 3h5c4-1 9-3 14-3l53-2c2 0 5 1 5-2 1-2-2-3-5-3a12 12 0 0 0-2 0c-4 0-5-2-4-5l2-9c0-6-1-7-6-7H64zm23-11h8c1 0 3 0 3-2a3 3 0 0 0-3-3H75c-1 0-3 0-3 2-1 2 1 3 3 3h12z" class="a"/><path d="M62 75l-33 8c-6 2-11-3-10-9l2-15a26 26 0 0 0 0-9c0-3 1-4 4-5 7-2 13-2 20-2 2 0 5 0 6-2 1-4-3-10-5-10-4-1-8 0-12 1l-6-1-2-4c0-2 2-1 3-1h16c3 0 4-1 4-4a28 28 0 0 1 0-5c0-1-1-4 1-4 3 0 5 1 6 4a11 11 0 0 1 0 2c0 3-1 6 3 7 4 0 8 1 9-4l2-5c0-3 2-3 4-3s3 2 3 4c0 3-3 6 0 8s6 0 9 1h11c3 0 6 0 6 3 0 4-4 3-6 3-6-1-12 0-18-2-2 0-5-1-6 1-2 3-4 9-3 10 5 3 5 7 5 12 0 2 4 2 7 1a24 24 0 0 1 14 0c1 1 3 1 3 3 0 3-2 2-4 2-6 0-12-1-18 1l-4 3c0 2 1 6-3 4-3-1-6-2-5-6l3-11c0-3 1-6-4-6-2 0-2-2-1-4l1-6c0-1 1-4-2-4-2 0-5 0-5 3a22 22 0 0 1-2 6c0 1 0 2 2 3l2 2c0 2-2 2-3 2l-5 2c-1 1-2 1-2 3s1 2 2 2c2 1 7 1 7 4 0 4-4 5-7 6l-4 2c-2 2-2 4-2 6s2 2 4 2c2 1 4-1 6-1 3 0 5-1 7 2zM47 59c0-1 0-2-2-2-5 0-11 0-15 4-2 1-3 3-2 4a4 4 0 0 0 5 2l13-5 1-3zm-13-5c2-1 6 1 7-3 0-3-3-3-4-3-3 1-6 1-7 5 0 2 2 1 4 1zm-1 18c-2 0-5 1-6 4 0 2 2 2 3 2 3 0 5-1 6-5 0-2-2-1-3-1zM64 88h27c5 0 6 1 6 7l-2 9c-1 3 0 5 4 5a12 12 0 0 1 2 0c3 0 6 1 6 3-1 3-4 2-6 2l-53 2c-5 0-10 2-14 3h-5c-2 0-5-1-5-3s3-2 4-2c9-2 9-2 9-11 0-12 2-14 14-15l13-1zm13 22c8 0 9-1 11-10 2-7 1-8-7-8-5 0-7 1-7 6a39 39 0 0 1-1 6c-2 6-2 6 4 6zm-25-6c-1-2 0-5 1-7 0-2-1-4-2-3-6 0-6 4-7 8 0 3-1 7 3 9 4 1 5 0 5-7zm7-2a60 60 0 0 0 0 6c0 2 3 3 4 1 1-4 4-9 4-15a3 3 0 0 0-3-3 3 3 0 0 0-3 3c-1 3-3 6-2 8zM87 77H75c-2 0-4-1-3-3 0-2 2-2 3-2h20a3 3 0 0 1 3 3c0 2-2 2-3 2h-8z" class="b"/><path d="M47 59l-1 3-13 5a4 4 0 0 1-5-2c-1-1 0-3 2-4 4-4 10-4 15-4 2 0 2 1 2 2zM34 54c-2 0-4 1-4-1 1-4 4-4 7-5 1 0 4 0 4 3-1 4-5 2-7 3zM33 72c1 0 3-1 3 1-1 4-3 5-6 5-2 0-4 0-3-2 1-3 4-4 6-4zM77 110c-6 0-6 0-4-6a39 39 0 0 0 1-6c0-5 3-6 7-6 8 0 9 1 7 8-2 9-2 10-11 10zM52 104c0 7-1 8-5 7-4-2-3-6-3-9 1-4 1-8 7-8 1-1 2 1 2 3l-1 7zM59 102c-1-2 1-5 2-8a3 3 0 0 1 3-3 3 3 0 0 1 3 3c0 6-3 11-4 15-1 2-3 2-4-1a60 60 0 0 1 0-6z" class="a"/><path fill="none" d="M0 0h128v128H0z"/></svg>
