<svg xmlns="http://www.w3.org/2000/svg" data-name="Firefox - Large" viewBox="0 0 1024 1024"><defs><radialGradient id="a" cx="-14480.52" cy="-8329.08" r="450.88" fx="-14509.28" gradientTransform="matrix(.762 .034 -.05 1.12 11560.9 10069.1)" gradientUnits="userSpaceOnUse"><stop offset=".04" stop-color="#ffea00"/><stop offset=".12" stop-color="#ffde00"/><stop offset=".25" stop-color="#ffbf00"/><stop offset=".43" stop-color="#ff8e00"/><stop offset=".77" stop-color="#ff272d"/><stop offset=".87" stop-color="#e0255a"/><stop offset=".95" stop-color="#cc2477"/><stop offset="1" stop-color="#c42482"/></radialGradient><radialGradient id="b" cx="-7529.67" cy="-7921.61" r="791.23" gradientTransform="translate(9921.96 9899.1) scale(1.225)" gradientUnits="userSpaceOnUse"><stop offset="0" stop-color="#00ccda"/><stop offset=".22" stop-color="#0083ff"/><stop offset=".26" stop-color="#007af9"/><stop offset=".33" stop-color="#0060e8"/><stop offset=".33" stop-color="#005fe7"/><stop offset=".44" stop-color="#2639ad"/><stop offset=".52" stop-color="#401e84"/><stop offset=".57" stop-color="#4a1475"/></radialGradient><linearGradient id="c" x1="575.67" x2="384.23" y1="731.19" y2="104.96" gradientUnits="userSpaceOnUse"><stop offset="0" stop-color="#000f43" stop-opacity=".4"/><stop offset=".48" stop-color="#001962" stop-opacity=".17"/><stop offset="1" stop-color="#002079" stop-opacity="0"/></linearGradient><radialGradient id="d" cx="-8260.94" cy="-6516.56" r="266.89" gradientTransform="rotate(5.67 -90365 106952.15) scale(1.225)" gradientUnits="userSpaceOnUse"><stop offset="0" stop-color="#ffea00"/><stop offset=".5" stop-color="#ff272d"/><stop offset="1" stop-color="#c42482"/></radialGradient><radialGradient id="e" cx="-8285.09" cy="-6772.47" r="445.68" gradientTransform="rotate(5.67 -90365 106952.15) scale(1.225)" gradientUnits="userSpaceOnUse"><stop offset="0" stop-color="#ffe900"/><stop offset=".16" stop-color="#ffaf0e"/><stop offset=".32" stop-color="#ff7a1b"/><stop offset=".47" stop-color="#ff4e26"/><stop offset=".62" stop-color="#ff2c2e"/><stop offset=".76" stop-color="#ff1434"/><stop offset=".89" stop-color="#ff0538"/><stop offset="1" stop-color="#ff0039"/></radialGradient><radialGradient id="f" cx="-8222.05" cy="-6359.33" r="408.96" gradientTransform="rotate(5.67 -90365 106952.15) scale(1.225)" gradientUnits="userSpaceOnUse"><stop offset="0" stop-color="#ff272d"/><stop offset=".5" stop-color="#c42482"/><stop offset=".99" stop-color="#620700"/></radialGradient><radialGradient id="g" cx="750.19" cy="396.04" r="782.18" fx="778.17" fy="382.21" gradientUnits="userSpaceOnUse"><stop offset=".16" stop-color="#ffea00"/><stop offset=".23" stop-color="#ffde00"/><stop offset=".36" stop-color="#ffbf00"/><stop offset=".54" stop-color="#ff8e00"/><stop offset=".76" stop-color="#ff272d"/><stop offset=".8" stop-color="#f92433"/><stop offset=".84" stop-color="#e91c45"/><stop offset=".89" stop-color="#cf0e62"/><stop offset=".94" stop-color="#b5007f"/></radialGradient><radialGradient id="h" cx="691.34" cy="3.29" r="923.62" gradientUnits="userSpaceOnUse"><stop offset=".28" stop-color="#ffea00"/><stop offset=".4" stop-color="#fd0"/><stop offset=".63" stop-color="#ffba00"/><stop offset=".86" stop-color="#ff9100"/><stop offset=".93" stop-color="#ff6711"/><stop offset=".99" stop-color="#ff4a1d"/></radialGradient><linearGradient id="i" x1="-8944.65" x2="-8660.29" y1="-6677.74" y2="-6750.23" gradientTransform="rotate(5.67 -90365 106952.15) scale(1.225)" gradientUnits="userSpaceOnUse"><stop offset="0" stop-color="#c42482" stop-opacity=".5"/><stop offset=".47" stop-color="#ff272d" stop-opacity=".5"/><stop offset=".49" stop-color="#ff2c2c" stop-opacity=".51"/><stop offset=".68" stop-color="#ff7a1a" stop-opacity=".72"/><stop offset=".83" stop-color="#ffb20d" stop-opacity=".87"/><stop offset=".94" stop-color="#ffd605" stop-opacity=".96"/><stop offset="1" stop-color="#ffe302"/></linearGradient><linearGradient id="j" x1="245.35" x2="190.78" y1="-1082.01" y2="-1221.86" gradientTransform="rotate(5.73 -13193.27 -1077.3)" gradientUnits="userSpaceOnUse"><stop offset="0" stop-color="#891551" stop-opacity=".6"/><stop offset="1" stop-color="#c42482" stop-opacity="0"/></linearGradient><linearGradient id="k" x1="22.04" x2="116.15" y1="718.83" y2="825.71" gradientTransform="rotate(5.73 2610.9 2923.84)" gradientUnits="userSpaceOnUse"><stop offset=".01" stop-color="#891551" stop-opacity=".5"/><stop offset=".48" stop-color="#ff272d" stop-opacity=".5"/><stop offset="1" stop-color="#ff272d" stop-opacity="0"/></linearGradient><linearGradient id="l" x1="200.1" x2="200.17" y1="904.62" y2="829.84" gradientTransform="rotate(5.73 2610.9 2923.84)" gradientUnits="userSpaceOnUse"><stop offset="0" stop-color="#c42482"/><stop offset=".08" stop-color="#c42482" stop-opacity=".81"/><stop offset=".21" stop-color="#c42482" stop-opacity=".56"/><stop offset=".33" stop-color="#c42482" stop-opacity=".36"/><stop offset=".45" stop-color="#c42482" stop-opacity=".2"/><stop offset=".56" stop-color="#c42482" stop-opacity=".09"/><stop offset=".67" stop-color="#c42482" stop-opacity=".02"/><stop offset=".77" stop-color="#c42482" stop-opacity="0"/></linearGradient><linearGradient id="m" x1="655.53" x2="961.19" y1="38.12" y2="721.62" gradientUnits="userSpaceOnUse"><stop offset="0" stop-color="#fff14f"/><stop offset=".27" stop-color="#ffee4c"/><stop offset=".45" stop-color="#ffe643"/><stop offset=".61" stop-color="#ffd834"/><stop offset=".76" stop-color="#ffc41e"/><stop offset=".89" stop-color="#ffab02"/><stop offset=".9" stop-color="#ffa900"/><stop offset=".95" stop-color="#ffa000"/><stop offset="1" stop-color="#ff9100"/></linearGradient><linearGradient id="n" x1="715.88" x2="571.1" y1="431.21" y2="819.96" gradientUnits="userSpaceOnUse"><stop offset="0" stop-color="#ff8e00"/><stop offset=".04" stop-color="#ff8e00" stop-opacity=".86"/><stop offset=".08" stop-color="#ff8e00" stop-opacity=".73"/><stop offset=".13" stop-color="#ff8e00" stop-opacity=".63"/><stop offset=".18" stop-color="#ff8e00" stop-opacity=".56"/><stop offset=".23" stop-color="#ff8e00" stop-opacity=".51"/><stop offset=".28" stop-color="#ff8e00" stop-opacity=".5"/><stop offset=".39" stop-color="#ff8e00" stop-opacity=".48"/><stop offset=".52" stop-color="#ff8e00" stop-opacity=".42"/><stop offset=".68" stop-color="#ff8e00" stop-opacity=".31"/><stop offset=".84" stop-color="#ff8e00" stop-opacity=".17"/><stop offset="1" stop-color="#ff8e00" stop-opacity="0"/></linearGradient></defs><path fill="url(#a)" d="M805.28 93.56c-23.94 27.88-35.1 90.64-10.81 154.25s61.5 49.8 84.7 114.68c30.62 85.6 16.37 200.59 16.37 200.59s36.81 106.6 62.46-6.64c56.79-212.7-152.72-410.5-152.72-462.88z"/><path fill="url(#b)" d="M513.07 976.64c245.24 0 443.9-199.74 443.9-446.03S758.31 84.58 513.31 84.58 69.65 284.32 69.65 530.61c-.48 246.53 198.42 446.03 443.42 446.03z" data-name="&lt;Path&gt;"/><path fill="url(#c)" d="M845.67 805.64a246.89 246.89 0 0 1-30.12 18.18 704 704 0 0 0 38.3-62.96c9.46-10.47 18.13-20.65 25.19-31.66 3.44-5.4 7.31-12.07 11.42-19.81 24.92-44.9 52.4-117.57 53.17-192.2V517c.02-1.84.03-3.68.02-5.52a257.6 257.6 0 0 0-5.71-55.75c.2 1.43.37 2.86.55 4.3-.22-1.1-.4-2.22-.64-3.32.36 2.03.66 4 .97 5.98 5.1 43.22 1.47 85.37-16.68 116.45-.28.46-.58.88-.87 1.33 9.41-47.24 12.56-99.4 2.1-151.6 0 0-4.2-25.39-35.38-102.45-17.96-44.35-49.84-80.71-78-107.2-24.7-30.55-47.12-51.05-59.48-64.06-25.82-27.2-36.64-47.57-41.09-60.87-3.85-1.93-53.13-49.8-57.05-51.63-21.5 33.35-89.16 137.67-56.98 235.15 14.59 44.17 51.47 90.01 90.07 115.73 1.7 1.94 22.97 25.04 33.09 77.16 10.44 53.84 4.95 95.85-16.55 157.98-25.29 54.5-90.07 108.39-150.72 113.9-129.68 11.78-177.15-65.1-177.15-65.1 46.33 18.52 97.57 14.64 128.72-4.56 31.4-19.43 50.4-33.83 65.81-28.15 15.2 5.65 27.3-10.76 16.44-27.77a78.5 78.5 0 0 0-79.4-34.57c-31.43 5.1-60.22 30-101.4 5.9a85.53 85.53 0 0 1-7.74-5.07c-2.71-1.78 8.83 2.72 6.14.69-8.02-4.35-22.2-13.84-25.88-17.22-.62-.56 6.21 2.18 5.6 1.62-38.5-31.71-33.7-53.14-32.49-66.57.97-10.75 7.97-24.52 19.75-30.11 5.7 3.1 9.24 5.48 9.24 5.48s-2.43-4.96-3.74-7.58c.46-.2.9-.15 1.36-.34 4.66 2.25 14.98 8.1 20.4 11.67 7.08 4.98 9.33 9.43 9.33 9.43s1.86-1.02.49-5.37c-.5-1.79-2.65-7.46-9.65-13.18l.43.05a81.2 81.2 0 0 1 11.87 8.24c1.98-7.18 5.53-14.68 4.75-28.09-.48-9.43-.26-11.87-1.92-15.51-1.5-3.13.83-4.35 3.42-1.1a32.83 32.83 0 0 0-2.21-7.4l.02-.25c3.22-11.23 68.25-40.46 72.98-43.87a67.36 67.36 0 0 0 19.13-20.8c3.62-5.77 6.34-13.85 7-26.12.36-8.84-3.76-14.73-69.5-21.61-17.99-1.78-28.54-14.8-34.53-26.83-1.1-2.59-2.21-4.93-3.33-7.28a58 58 0 0 1-2.55-8.43c10.75-30.87 28.8-56.98 55.36-76.7 1.45-1.32-5.78.34-4.33-.98 1.68-1.54 12.7-5.98 14.78-6.98 2.55-1.2-10.88-6.9-22.73-5.5-12.07 1.35-14.63 2.8-21.07 5.52 2.67-2.66 11.17-6.15 9.18-6.12-13.01 2-29.18 9.55-43 18.12a10.73 10.73 0 0 1 .83-4.35c-6.44 2.73-22.26 13.79-26.86 23.14a44.33 44.33 0 0 0 .27-5.4 84.48 84.48 0 0 0-13.2 13.82l-.24.22c-37.36-15.05-70.23-16.02-98.05-9.28-6.09-6.1-9.06-1.64-22.91-32.06-.94-1.84.72 1.8 0 0-2.28-5.9 1.39 7.87 0 0-23.29 18.37-53.92 39.19-68.63 53.89-.18.58 17.16-4.9 0 0-6 1.71-5.6 5.28-6.51 37.5-.22 2.44-.03 5.17-.22 7.37-11.75 14.97-19.75 27.65-22.78 34.21-15.2 26.18-31.92 67-48.14 131.56a334.36 334.36 0 0 1 25.78-50.4c-13.49 34.26-26.53 88.07-29.13 170.94a483.61 483.61 0 0 1 12.53-50.66 473.04 473.04 0 0 0 34.74 201.06c9.33 22.82 24.76 57.46 51.03 95.4 82.53 86.84 198.94 140.9 327.85 140.9 134.57 0 255.41-58.88 338.45-152.37z"/><path fill="url(#d)" d="M746.1 868.7c162.87-18.85 234.97-186.7 142.38-190-83.63-2.67-219.53 198.9-142.38 190z"/><path fill="url(#e)" d="M900.2 644.42c112.06-65.21 82.85-206.08 82.85-206.08s-43.25 50.24-72.63 130.32c-29.02 79.3-77.58 115.15-10.21 75.76z"/><path fill="url(#f)" d="M544.47 952.06c156.23 49.85 290.5-73.22 207.74-114.32-75.25-37.06-281.89 90.75-207.74 114.32z"/><path fill="url(#g)" d="M911.85 704.23c3.8-5.36 8.94-22.53 13.48-30.2C952.9 629.5 953.1 594 953.1 593.18c16.65-83.22 15.14-117.2 4.9-180.05-8.26-50.6-44.33-123.09-75.57-158-32.2-35.96-9.52-24.24-40.7-50.51-27.32-30.3-53.82-60.3-68.25-72.36C669.22 45.1 671.57 26.57 673.58 23.42c-.34.37-.84.92-1.47 1.64C670.87 20.14 670 16 670 16s-57 57-69 152c-7.83 62.02 15.38 126.68 49 168a381.37 381.37 0 0 0 59 58v-.03c25.4 36.48 39.38 81.5 39.38 129.91 0 121.25-98.34 219.53-219.65 219.53a220.46 220.46 0 0 1-49.14-5.51c-57.23-10.91-90.28-39.79-106.77-59.39-9.44-11.23-13.46-19.42-13.46-19.42 51.28 18.37 107.98 14.53 142.47-4.52 34.75-19.26 55.77-33.54 72.83-27.91 16.82 5.6 30.21-10.67 18.2-27.54-11.77-16.84-42.4-40.97-87.87-34.28-34.8 5.06-66.66 29.76-112.24 5.84a96.31 96.31 0 0 1-8.56-5.02c-3-1.77 9.77 2.7 6.79.68-8.87-4.32-24.57-13.73-28.64-17.07-.68-.56 6.88 2.16 6.2 1.6-42.63-31.45-37.3-52.7-35.96-66.02 1.07-10.66 8.81-24.32 21.86-29.86 6.3 3.08 10.22 5.43 10.22 5.43s-2.69-4.92-4.14-7.51c.5-.2 1-.14 1.5-.34a275.48 275.48 0 0 1 22.59 11.57c7.82 4.95 10.32 9.36 10.32 9.36s2.06-1.02.53-5.33c-.55-1.77-2.92-7.4-10.68-13.07l.49.05a90.85 90.85 0 0 1 13.13 8.18c2.19-7.12 6.12-14.56 5.25-27.86-.52-9.35-.28-11.78-2.12-15.39-1.65-3.1.92-4.31 3.78-1.09a30.04 30.04 0 0 0-2.44-7.34l.02-.24c3.57-11.14 75.54-40.13 80.78-43.51a70.31 70.31 0 0 0 21.17-20.63c4-5.72 7.01-13.74 7.75-25.9.24-5.48-1.44-9.82-20.5-13.96-11.44-2.5-29.14-4.92-56.43-7.48-19.9-1.75-31.58-14.67-38.22-26.6-1.2-2.57-2.44-4.9-3.68-7.22a53.1 53.1 0 0 1-2.83-8.36 158.47 158.47 0 0 1 61.28-76.06c1.6-1.31-6.4.33-4.8-.98 1.87-1.52 14.06-5.92 16.37-6.91 2.81-1.2-12.05-6.84-25.16-5.47-13.36 1.35-16.2 2.78-23.32 5.49 2.96-2.64 12.36-6.1 10.16-6.08-14.4 1.98-32.3 9.48-47.6 17.97a9.68 9.68 0 0 1 .92-4.3c-7.13 2.7-24.64 13.67-29.73 22.94a39.49 39.49 0 0 0 .3-5.35 88.68 88.68 0 0 0-14.6 13.7l-.28.22c-41.34-14.93-77.73-15.9-108.52-9.2-6.73-6.07-17.56-15.23-32.89-45.4-1.04-1.82-1.6 3.75-2.4 1.96-5.95-13.82-9.55-36.45-8.96-52.05 0 0-12.32 5.61-22.51 29.06-1.9 4.22-3.11 6.54-4.32 8.87-.56.67 1.26-7.7.97-7.25-1.77 3-6.36 7.2-8.37 12.62-1.39 4.02-3.33 6.27-4.57 11.29l-.29.46c-.1-1.48.37-6.08.03-5.14a236.1 236.1 0 0 0-12.3 29.84c-5.5 18.05-11.89 42.61-12.9 74.57-.24 2.42-.03 5.13-.25 7.31-13 14.85-21.85 27.42-25.2 33.93-16.81 25.97-35.33 66.45-53.28 130.47a319.14 319.14 0 0 1 28.54-49.99C52.32 418.25 37.88 471.62 35 553.8a438.52 438.52 0 0 1 13.87-50.24c-2.58 54.8 3.8 122.74 38.45 199.4 20.57 45.08 67.92 136.64 183.62 208.1s39.35 29.3 107 51.26c5 1.81 10.07 3.6 15.24 5.33a100.5 100.5 0 0 1-4.71-2.05 484.88 484.88 0 0 0 138.8 20.4c175.18.15 226.84-70.2 226.84-70.2l-.51.38q3.7-3.5 7.14-7.26c-27.64 26.1-90.71 27.83-114.3 25.95 40.23-11.81 66.7-21.8 118.18-41.52q9.03-3.35 18.48-7.64c.68-.3 1.37-.63 2.05-.94 1.25-.58 2.49-1.13 3.75-1.74a349.2 349.2 0 0 0 70.26-43.99c51.7-41.3 62.95-81.55 68.83-108.1-.82 2.55-3.38 8.48-5.17 12.32-13.31 28.48-42.84 45.96-74.9 60.95a689 689 0 0 0 42.38-62.44c10.47-10.38 13.73-26.62 21.55-37.54z"/><path fill="url(#h)" d="M848.92 802.98c21.08-23.24 40.01-49.82 54.35-79.97 36.9-77.58 93.95-206.58 49.02-341.3C916.78 275.23 868.02 217 806.1 160.12 705.56 67.76 677.48 26.52 677.48 2c0 0-116.09 129.4-65.74 264.38S765.2 396.4 833.42 537.26c80.27 165.74-64.95 346.6-185.04 397.23 7.35-1.63 266.97-60.38 280.6-208.88-.3 2.73-6.15 43.8-80.06 77.37z"/><path fill="url(#i)" d="M512.6 321.37c.38-8.77-4.16-14.66-76.69-21.46-29.84-2.76-41.27-30.33-44.75-41.94-10.6 27.56-14.99 56.49-12.63 91.48 1.6 22.92 17 47.52 24.37 61.96 0 0 1.63-2.13 2.39-2.91 13.86-14.43 71.93-36.42 77.39-39.54 6.01-3.8 28.9-20.52 29.91-47.59z"/><path fill="url(#j)" d="M193.31 158.47c-1.04-1.82-1.6 3.76-2.4 1.96-5.95-13.81-9.57-36.2-8.72-52.02 0 0-12.31 5.61-22.5 29.06-1.9 4.22-3.12 6.54-4.33 8.87-.56.67 1.27-7.7.97-7.25-1.77 3-6.35 7.2-8.34 12.38-1.65 4.24-3.35 6.51-4.61 11.77-.4 1.43.39-6.32.05-5.38-23.71 45.82-28.24 115.11-25.74 112.18 50.48-53.9 108.32-66.68 108.32-66.68-6.15-4.53-19.52-17.63-32.7-44.89z"/><path fill="url(#k)" d="M384.84 722.1c-69.72-29.77-148.99-71.75-146-167.14C242.92 429.34 356 454.17 356 454.17c-4.27 1.04-15.68 9.16-19.72 17.82-4.27 10.83-12.07 35.28 11.55 60.9 37.1 40.2-76.2 95.36 98.66 199.57 4.41 2.4-40.99-1.43-61.63-10.36z"/><path fill="url(#l)" d="M360.07 659.5c49.45 17.2 107.04 14.19 141.53-4.86 23.08-12.85 52.7-33.43 70.92-28.35-15.78-6.24-27.73-9.15-42.1-9.86-2.45 0-5.38-.05-8.05-.32a136.23 136.23 0 0 0-15.76.86c-8.9.82-18.76 6.43-27.73 5.53-.49-.05 8.7-3.77 7.95-3.6-4.75.99-9.91 1.2-15.37 1.88-3.47.38-6.45.82-9.89.96-102.98 8.73-190.02-55.81-190.02-55.81-7.4 24.95 33.17 74.3 88.52 93.57z"/><path fill="url(#m)" d="M848.74 803.65C952.9 701.38 1005.6 577.06 983.32 437.63c0 0 8.9 71.5-24.85 144.63 16.22-71.4 18.1-160.12-24.97-252C876 207.65 781.45 143.12 745.35 116.2c-54.7-40.79-77.37-82.32-77.78-90.89-16.34 33.48-65.76 148.2-5.3 247 56.63 92.56 145.86 120.04 208.32 204.95 115.08 156.42-21.85 326.4-21.85 326.4z"/><path fill="url(#n)" d="M833.81 537.55c-36.4-75.2-81.83-108-124.81-143.55 5 7 6.23 9.47 9 14 37.83 40.32 93.6 138.66 53.11 262.1C694.88 902.49 389.97 793.07 358 762.33c12.93 134.49 238.04 198.84 384.6 111.63C826 795 893.47 660.79 833.81 537.55z"/></svg>