<svg xmlns="http://www.w3.org/2000/svg" viewBox="0 0 128 128"><defs><style>.b{fill:#19003e}.c{fill:#d191fd}</style></defs><path fill="#d291fe" d="M64 127H0v-1V2h128v124l-1 1zm0-6h59V8l-1-1H6L5 8v113h59z"/><path d="M64 121H5V8l1-1h116l1 1v113H64zM45 30h-6l-1 1a16 16 0 0 1 0 4L27 72l-4 16 1 1h7l1-1a4098 4098 0 0 0 5-16h16a1 1 0 0 1 0 1l5 15 1 1h8l1-1-17-57a1 1 0 0 0-1-1h-5zm45 39h12l1-1a15 15 0 0 0 1-2 27 27 0 0 0-1-10 16 16 0 0 0-6-8 14 14 0 0 0-7-3 16 16 0 0 0-10 2 18 18 0 0 0-8 9 31 31 0 0 0-2 13 27 27 0 0 0 2 11 16 16 0 0 0 13 9 29 29 0 0 0 8 1 22 22 0 0 0 7-2 1 1 0 0 0 1-2v-3-3h-1a21 21 0 0 1-12 1 9 9 0 0 1-7-5 14 14 0 0 1-1-6v-1h10z" class="b"/><path d="M45 30h5a1 1 0 0 1 1 1l17 57-1 1h-8l-1-1-5-15a1 1 0 0 0 0-1H37l-1 1a2344 2344 0 0 1-5 16h-7l-1-1 4-16 11-37a16 16 0 0 0 0-4l1-1zm0 9a1 1 0 0 0-1 0v5l-5 19v1h12v-1l-6-21v-3zM90 69H80v1a14 14 0 0 0 1 6 9 9 0 0 0 7 5 21 21 0 0 0 12-1h1v6a1 1 0 0 1-1 2 22 22 0 0 1-7 2 29 29 0 0 1-8-1 16 16 0 0 1-13-9 27 27 0 0 1-2-11 31 31 0 0 1 2-13 18 18 0 0 1 8-9 16 16 0 0 1 10-2 14 14 0 0 1 7 3 16 16 0 0 1 6 8 27 27 0 0 1 1 10 15 15 0 0 1-1 2l-1 1H90zm-3-7h7l1-1a9 9 0 0 0-1-4 6 6 0 0 0-5-4 7 7 0 0 0-7 2 13 13 0 0 0-2 6v1z" class="c"/><path d="M45 39v3l6 21v1H39l-1-1 5-19 1-5a1 1 0 0 1 1 0zM87 62h-7v-1a13 13 0 0 1 2-6 7 7 0 0 1 7-2 6 6 0 0 1 5 4 9 9 0 0 1 1 4l-1 1h-7z" class="b"/><path fill="none" d="M0 0h128v128H0z"/></svg>