<svg xmlns="http://www.w3.org/2000/svg" viewBox="0 0 128 128"><defs><style>.a{fill:#8ba92f}.b{fill:#f9faf5}</style></defs><path d="M111 125h-6c-6-5-11-10-12-17-1-2-2-1-4-1-2 1-1 3-1 5 1 7-3 10-8 13h-7c-3-4-6-7-11-4-2 1-4 0-5-2a52 52 0 0 0-3-5c-5-8-5-8 3-12 4-2 4-3 1-6-3-2-5-4-5-8s-1-7 4-9a14 14 0 0 1-8-9 12 12 0 0 1-12 4 12 12 0 0 0-6 1c-6 2-11 3-17-1-3-2-3-6-6-8V54c3-2 3-6 6-9s2-4-1-6c-6-3-4-9-4-14l2-2 13-4c2 0 3-1 3-3 0-5 4-8 8-9a10 10 0 0 1 12 3c1 2 2 3 4 2 8-1 16 6 14 14a7 7 0 0 0 2 6c8 7 9 17 7 27 0 3 0 4 4 3 5 0 10 2 11 7s5 7 5 13a68 68 0 0 0 6-4c3-1 4-1 7 1 6 4 7 7 6 15 0 3-4 9 4 9l2 3c1 1 1 4 3 5v6c-3 4-7 6-11 8zM16 59c0 4 1 7 4 9 4 2 8 0 11-2s4-4 7 0h4c2-1 1-2 0-3-1-3-1-4 1-6l8-14c1-2 2-5 4-4 3 0 4 2 5 5a15 15 0 0 1 2 6 31 31 0 0 1-3 15c-1 2-2 4 0 5s4-1 5-3a42 42 0 0 0 3-18c0-5-3-10-7-13-3-2-3-4-3-7 0-8-1-10-9-8l-4 1c-2 1-3 1-2-2 0-3-1-6-4-6s-3 3-2 5c0 4-2 6-6 7a57 57 0 0 0-9 2c-2 1-5 0-4 3 1 2 3 3 5 2l10-3c2-1 3 0 3 3 1 4-2 6-5 8-7 4-12 11-14 18zm64 49c-1-4 0-5 2-6l14-8c3-2 4-1 4 3-1 5 0 10 3 15 2 3 4 6 8 4 1-1 3-1 2-3l-2-1c-4 1-4-1-5-4-2-5-2-11-1-16 1-2 1-4-1-5s-3 0-4 1l-17 9c-1 1-2 2-3 0-1-3 1-11 4-13 3-1 2-3 0-3-3-1-3-2-3-4 1-3 2-6-2-7s-2 4-3 6a3 3 0 0 0 0 1c1 4-1 5-4 6l-9 3-2 2a2 2 0 0 0 3 2 25 25 0 0 0 3-1c8-2 8-2 8 7 0 4-1 7-5 8a47 47 0 0 0-7 4c-1 0-3 1-2 3l4 1a17 17 0 0 0 2-1c4-2 8-6 8 3a2 2 0 0 0 0 1c1 1 1 2 3 2l2-3v-6z" class="a"/><path d="M16 59c2-7 7-14 14-18 3-2 6-4 5-8 0-3-1-4-3-3l-10 3c-2 1-4 0-5-2-1-3 2-2 4-3a57 57 0 0 1 9-2c4-1 6-3 5-7 0-2 0-5 3-5s4 3 4 6c-1 3 0 3 2 2l4-1c8-2 9 0 9 8 0 3 0 5 3 7 4 3 7 8 7 13a42 42 0 0 1-3 18c-1 3-2 5-5 4s-1-4 0-6a31 31 0 0 0 3-15 15 15 0 0 0-2-6c-1-3-2-5-5-5-2-1-3 2-4 4l-8 14c-2 2-2 3-1 6 1 1 2 2 0 3h-4c-3-4-4-2-7 0s-7 4-11 2c-3-2-4-5-4-9zm19-8v-5c0-1-1-2-2-1-6 4-11 9-12 16 0 3 1 3 3 3 5-1 11-8 11-13zm8-16l5-1a5 5 0 0 0 4-7c-1-3-4-1-6 0a21 21 0 0 0-4 1c-2 1-1 4-2 5 0 2 2 2 3 2zm-3 14a15 15 0 0 0 6-7v-3h-3c-6 2-2 7-3 10zM80 108v6l-2 3c-2 0-2-1-3-2a2 2 0 0 1 0-1c0-9-4-5-8-3a17 17 0 0 1-2 1l-4-1c-1-2 1-3 2-3a47 47 0 0 1 7-4c4-1 5-4 5-8 0-9 0-9-8-7a25 25 0 0 1-3 1 2 2 0 0 1-3-2l2-2 9-3c3-1 5-2 4-6a3 3 0 0 1 0-1c1-2-1-6 3-6s3 4 2 7c0 2 0 3 3 4 2 0 3 2 0 4-3 1-5 9-4 12 1 2 2 1 3 0l17-9c1-1 3-3 4-1l1 5c-1 5-1 11 1 16 1 3 2 5 5 4l2 1c1 2 0 2-1 3-5 2-7-1-9-4-3-5-4-10-3-15 0-4-1-5-4-3l-14 8c-2 1-3 3-2 6z" class="b"/><path d="M35 51c0 5-6 12-11 13-2 0-3 0-3-3 1-7 6-12 12-16 1-1 2 0 2 1v5zM43 35c-1 0-3 0-3-2 1-1 0-4 2-5a21 21 0 0 1 4-1c2-1 5-3 6 0a5 5 0 0 1-4 7l-5 1zM40 49c1-3-3-8 3-10h3v3a15 15 0 0 1-6 7z" class="a"/><path fill="none" d="M0 0h128v128H0z"/></svg>