<svg xmlns="http://www.w3.org/2000/svg" viewBox="0 0 128 128"><defs><style>.a{fill:#c95836}.b{fill:#fbf5f3}</style></defs><path d="M67 7c8 3 9 10 9 17l-1 12a11 11 0 0 1-13 9v7c0 3 0 6-3 7-2 0-2 2-3 3l-4 12c-1 5-4 7-10 7-5 1-7-3-9-6-2-1-1-5-1-7l3-10c1-2 2-3 0-5-2 0-3-1-5 1-3 3-10 1-12-2l-4-5v-7a59 59 0 0 0 11-17c3-6 8-7 15-7-2-4 0-6 4-7 1 0 3 0 5-2h3c3 4 6 3 9 0zM37 32l6 1c9 1 9 0 6 10-1 3-3 3-5 1l-10-4-3 1 2 2 10 5c2 1 3 2 2 5a100 100 0 0 0-3 13c-1 2-4 6 0 7 3 0 3-4 4-6 3-5 2-12 8-15a1 1 0 0 0 0-2c-3-5 1-9 2-13 3-8-2-13-3-20a3 3 0 0 0-4-1v3l2 7v3c-2 1-11-1-13-3-1-2-3-3-4-1L23 43c-2 1 0 3 1 3 1 2 2 0 3-1l7-10 3-3zm30 5a62 62 0 0 0 0-19 3 3 0 0 0-3-3c-2 1-2 2-1 4v10c0 3 1 6 4 8zM78 123a22 22 0 0 0-2-2c-6-4-7-7-4-14a43 43 0 0 1 2-5c2-4 5-8-3-9-2-1-5-10-4-12s9-7 12-6c7 4 10 0 12-6a56 56 0 0 1 5-7c5-8 16-7 20 1v8c-4 4-7 8-9 13-2 2-1 3 1 4 3 1 6 2 8 5v10c-5 1-9 5-14 3-7-3-7-3-10 4-2 5-2 11-8 13zm30-26l-10-5c-3-1-3-3-2-7l9-14c2-2 5-3 2-5-3-3-4 1-6 2a92 92 0 0 0-9 17c-1 2-2 3-5 2l-9-4-2 1a2 2 0 0 0 1 3 71 71 0 0 0 8 3c3 1 3 2 2 4a90 90 0 0 0-8 15c0 2-1 4 1 5 3 1 3-2 4-3l5-11c3-7 3-7 9-4 3 1 6 3 10 1z" class="a"/><path d="M37 32l-3 3-7 10c-1 1-2 3-3 1-1 0-3-2-1-3l11-18c1-2 3-1 4 1 2 2 11 4 13 3v-3l-2-7v-3a3 3 0 0 1 4 1c1 7 6 12 3 20-1 4-5 8-2 13a1 1 0 0 1 0 2c-6 3-5 10-8 15-1 2-1 6-4 6-4-1-1-5 0-7a100 100 0 0 1 3-13c1-3 1-4-2-5l-10-5-2-2 3-1 10 4c2 2 4 2 5-1 3-10 3-9-6-10l-6-1zM67 37c-3-2-4-5-4-8V19c0-2-1-3 1-4a3 3 0 0 1 3 3 62 62 0 0 1 0 19zM108 97c-4 2-7 0-10-1-6-3-6-3-9 3l-5 12c-1 1-1 4-4 3-2-1-1-3-1-5a90 90 0 0 1 8-15c1-2 1-3-2-4a71 71 0 0 1-8-3 2 2 0 0 1-1-3l2-1 9 4c3 1 4 0 5-3a92 92 0 0 1 9-16c2-1 3-5 6-3 2 3-1 4-2 6l-9 14c-2 4-2 5 2 7l10 5z" class="b"/><path fill="none" d="M0 0h128v128H0z"/></svg>