<svg xmlns="http://www.w3.org/2000/svg" viewBox="0 0 128 128"><defs><style>.a{fill:#848484}.b{fill:#f7f7f7}</style></defs><path d="M57 5c8 4 13 20 8 29-1 2-2 3-5 3-5 1-11 1-16-1-3-1-4-1-5 1l-2 4c-1 1-3 3-3 5 0 3 3 2 5 2 5 3 7 7 6 12-1 4-5 6-10 6a19 19 0 0 1-19-24l2-6c-5 1-9 1-12-4-2-2-3-5-1-8s4-5 7-5l22-4 2-1c0-5 3-7 6-9zM32 27c-5 6-8 11-9 17a12 12 0 0 0 11 15c1 0 4 1 4-2 0-2-2-2-4-2-4 0-7-2-7-6a13 13 0 0 1 1-8 43 43 0 0 1 12-14l2-3-4-2-4 1-19 3c-2 0-4-1-4 2 1 2 2 2 4 1l17-2zm18 0c-2-4-1-8-2-12a3 3 0 0 0-3-3 1 1 0 0 0-2 2l3 15 3 1 1-3zm10-3a24 24 0 0 0-2-9c0-2-1-3-3-2-2 0-1 2-1 3l2 10c0 2-1 5 2 5s1-3 2-5a16 16 0 0 0 0-2zM18 125c-5-3-9-6-9-13 0-5 2-8 8-10 4-2 5-2 4-7-2-6-2-13-5-19-1-3 2-6 5-7 3-2 6-2 9 0a12 12 0 0 1 5 7c1 4 3 4 7 3 3-2 7-2 11 0s5 5 5 9c0 3-3 5-6 6l-8 2c-2 1-4 1-3 3 0 2 1 3 2 3a88 88 0 0 1 8 4c5 3 7 10 4 14s-10 5-14 1c-3-3-5-3-8 0l-5 4zm11-28c1 7 0 11-6 10l-4 2c-4 2-4 5-1 8s9 2 12-2c2-5 6-4 10-3a19 19 0 0 1 6 3c1 1 2 2 3 1 1-2 0-3-1-4a53 53 0 0 0-12-5c-1 0-3 0-3-2a46 46 0 0 0 0-11c0-2 1-2 3-2l12-4c1 0 3 0 2-2 0-2-2-2-3-1l-8 2c-6 2-6 2-9-4l-2-5-3-3c-2 1-1 3 0 4 3 6 2 14 4 18zM127 101a60 60 0 0 1-10 10c-12 9-21 8-29-5-2-3-4-4-7-1-4 5-11 4-15-1-4-4-3-9 3-13 5-4 10-7 16-7 7-1 12 2 15 8 2 4 5 5 9 2a23 23 0 0 1 4-2c7-3 9-3 14 3zm-7-3c-4 0-6 1-9 3-10 5-10 5-16-5-3-5-7-6-11-5a28 28 0 0 0-12 6c-2 2-1 3 1 4s3 0 5-2c7-6 9-5 15 2 3 4 5 9 11 8 7 0 12-6 16-11zM101 6h1l17 9c3 1 4 5 3 8-1 4-3 7-7 7s-4 2-4 5c0 7 3 14 2 21l-1 5c-1 3-3 7-8 7s-8-3-10-7a6 6 0 0 0-4-4c-6-3-11-8-10-16 0-3 0-4-4-5-5-1-8-4-8-9s3-8 8-9l8-3c4-1 8-1 10-5 1-3 4-3 7-4zm0 43v8a3 3 0 0 0 2 3c2 1 3-1 3-3a29 29 0 0 0 0-3c0-9-3-17-2-26 0-4 1-5 5-5h3l3-1c0-2-1-3-3-3a12 12 0 0 0-2 0c-4 0-6 1-7-4a2 2 0 0 0-2-2 2 2 0 0 0-2 3c1 5-2 5-5 5-6 0-11 2-17 4-1 0-2 1-2 3a3 3 0 0 0 4 1l3-1a58 58 0 0 1 15-4c3 0 3 1 3 4 0 2 0 3-3 3-5-1-9 4-10 9s2 9 7 11l7-2z" class="a"/><path d="M32 27l-17 2c-2 1-3 1-4-1 0-3 2-2 4-2l19-4h4l4 1c1 2-1 3-2 4a43 43 0 0 0-12 14 13 13 0 0 0-1 8c0 4 3 6 7 6 2 0 4 0 4 2 0 3-3 2-4 2a12 12 0 0 1-11-15c1-6 4-11 9-17zM50 27l-1 3-3-1-3-15a1 1 0 0 1 2-2 3 3 0 0 1 3 3c1 4 0 8 2 12zM60 24a16 16 0 0 1 0 2c-1 2 0 5-2 5s-2-3-2-5l-2-10c0-1-1-3 1-3 2-1 3 0 3 2a24 24 0 0 1 2 9zM29 97c-2-4-1-12-4-18-1-1-2-3 0-4l3 3 2 5c3 6 3 6 9 4l8-2c1-1 3-1 3 1 1 2-1 2-2 2l-12 4c-2 0-3 0-3 2a46 46 0 0 1 0 11c0 2 2 2 3 2a53 53 0 0 1 12 5c1 1 2 2 1 4-1 1-2 0-3-1a19 19 0 0 0-6-3c-4-2-8-2-10 3-3 4-9 4-12 2s-3-6 1-8l3-2c7 1 8-3 7-10zm-2 15c0-2-1-2-2-2-2 1-4 1-5 3 0 2 1 2 2 2 2 0 4-1 5-3zM120 98c-5 5-9 11-16 11-6 1-8-4-11-8-6-7-8-8-15-2-2 2-3 3-5 2s-3-2-1-4a28 28 0 0 1 12-6c5-1 8 0 11 5 6 10 6 10 16 5 3-2 5-3 9-3zM101 49l-7 2c-5-2-8-6-7-11s5-10 10-9c3 0 3-1 3-3 0-3 0-4-3-4a58 58 0 0 0-15 4l-3 1a3 3 0 0 1-4-1c0-2 1-3 2-3 6-2 11-4 17-4 3 0 6 0 5-5a2 2 0 0 1 2-3 2 2 0 0 1 2 2c1 5 3 4 6 4a12 12 0 0 1 3 0c2 0 3 1 3 3l-3 1h-3c-4 0-5 1-5 5-1 9 2 17 2 26a29 29 0 0 1 0 3c0 2-1 4-3 3a3 3 0 0 1-2-3v-8zm-2-8c0-3 0-5-3-6-2 0-5 5-5 8 0 2 1 4 4 4 4 0 4-4 4-6z" class="b"/><path d="M27 112c-1 2-3 3-5 3-1 0-2 0-2-2 1-2 3-2 5-3 1 0 2 0 2 2zM99 41c0 2 0 6-4 6-3 0-4-2-4-4 0-3 3-8 5-8 3 1 3 3 3 6z" class="a"/><path fill="none" d="M0 0h128v128H0z"/></svg>