<svg xmlns="http://www.w3.org/2000/svg" viewBox="0 0 128 128"><defs><style>.a{fill:#848484}.b{fill:#f7f7f7}</style></defs><path d="M1 93c9-7 9-7 13-18 1-4 5-5 9-5 5 0 5 1 8-4-8-3-14-7-16-16a19 19 0 0 1 1-11c1-3 1-3-2-3a10 10 0 0 1-11-9 8 8 0 0 1 8-9c7 0 14-3 22-3 1-1 3-1 3-4 1-5 6-8 11-6a12 12 0 0 0 6 0c5-1 9 1 11 6 3 6 2 13 2 19 0 3-2 6-5 6-6 1-12 2-18-1-2-1-3-1-4 1l-3 4c-3 5-3 5 2 8 8 3 9 10 4 15-2 2-1 3 0 4a156 156 0 0 1 21 23c4 6 3 11-1 14-5 4-10 2-14-3-2-2-2-5-5-6 1 9-2 17-6 25-5 8-12 9-18 2-1-2-2-2-5-2-6 2-12-4-11-11 1-3 1-5-2-6zm24 2c6 0 8 2 6 6a52 52 0 0 1-5 14c-1 1-2 3 0 4s4 0 5-2a46 46 0 0 0 4-13c2-8 0-14-10-13-3 0-3-1-3-4a45 45 0 0 0 2-7 2 2 0 0 0-2-3c-2 0-2 1-2 2l-1 4c-1 6-3 11-10 13l-2 2a3 3 0 0 0 3 2c3 0 3 1 2 3a28 28 0 0 0-1 5c0 2-2 4 1 5s3-2 3-4a65 65 0 0 0 3-9c1-4 4-5 7-5zm6-69c-4 6-7 11-8 16-3 8 2 16 10 17 2 0 4 0 5-2s-2-3-4-3c-7-1-9-4-7-11s6-11 11-16c1-1 4-2 3-5-2-2-4-1-6-1l-21 4c-1 0-3-1-3 2 0 2 2 2 4 2zm6 46l-2 1c0 2 1 3 2 3a110 110 0 0 1 16 20c1 1 2 4 4 3 3-2 1-4-1-5a146 146 0 0 0-17-20l-2-2zm13-45c-2-4-1-9-2-13a3 3 0 0 0-4-3 1 1 0 0 0-1 2l3 15a2 2 0 0 0 2 2c1-1 2-1 2-3zm9-3l-1-11c-1-1-2-2-3-1l-1 2 1 9c1 3-1 7 3 7 2 0 0-5 1-6zM91 84l-6 1c-5 1-10-2-11-7-1-6 1-9 7-11l16-2c-3-4-4-9-10-11s-8-8-7-15c0-2 0-3-3-3a10 10 0 0 1-9-10c0-5 3-8 8-9l7-2c4-1 8-2 11-6 3-5 9-5 13-1a11 11 0 0 0 7 3 10 10 0 0 1 8 10c0 4-3 7-8 8-3 1-3 2-3 4l2 19c0 6-1 11-5 14l4 3c6 4 8 11 4 17a100 100 0 0 1-12 12c-3 3-2 5 0 7a12 12 0 0 1 1 16c-4 5-11 6-14 0-4-5-5-11-9-16-2-4-1-8 2-12a104 104 0 0 0 7-9zm-4-43c0 6 4 10 10 9 6-2 4 2 4 5v1a3 3 0 0 0 2 4c2 0 3-2 3-3v-4c0-8-3-16-2-24 1-7 0-7 7-7 1 0 4 1 4-2 0-2-2-2-4-2a8 8 0 0 0-2 0c-3 1-5 1-6-3a3 3 0 0 0-3-2c-2 0-1 2-1 3 0 3-1 4-4 4-6 0-11 2-16 3-2 1-5 1-4 4s3 2 6 1c5-3 10-4 15-5 3 0 4 1 4 3s0 4-3 4c-6 0-10 4-10 11zm10 35c3 0 6-1 8 2 1 3-2 4-4 6a152 152 0 0 0-12 14v6l4 1c2-1 2-3 2-4 0-3 1-5 3-6l10-12c4-4 4-7-2-9-7-3-14-3-21 0-2 0-4-1-4 2 1 3 3 2 5 2a47 47 0 0 1 11-2zm-2 37c0 2 0 5 3 5 2 0 3-2 3-3-1-3 0-6-4-6-2 0-2 2-2 4z" class="a"/><path d="M25 95c-3 0-6 1-7 5a65 65 0 0 1-3 9c0 2 0 5-3 4s-1-3-1-5a28 28 0 0 1 1-5c1-2 1-3-2-3a3 3 0 0 1-3-2l2-2c7-2 9-7 10-13l1-4c1-2 0-2 2-2a2 2 0 0 1 2 3 45 45 0 0 1-2 7c-1 3 0 4 3 4 10-1 12 5 10 13a46 46 0 0 1-5 13c-1 2-2 3-4 2s-1-3 0-4a52 52 0 0 0 5-14c2-4 0-6-6-6zM31 26l-16 3c-2 0-4 0-4-2 0-3 2-2 3-2l21-4c2 0 4-1 6 1 1 3-2 4-3 5-5 5-9 10-11 16s0 10 7 11c2 0 4 1 4 3s-3 2-4 2c-9-1-13-9-11-16 1-6 4-11 8-17zM37 72l2 2a146 146 0 0 1 18 20c1 1 3 3 0 5-2 1-3-2-4-3a110 110 0 0 0-16-20c-1 0-2-1-2-3l2-1zM50 27c0 2-1 2-2 3a2 2 0 0 1-2-2l-3-15a1 1 0 0 1 1-2 3 3 0 0 1 4 3c1 4 0 9 2 13zM59 24c-1 1 1 6-1 6-4 0-2-4-3-7l-1-9c0-1-1-2 1-2l2 1c2 3 2 7 2 11zM87 41c0-7 4-11 10-11 3 0 3-1 3-4 0-2-1-3-4-3-5 1-10 2-15 5-3 1-5 1-6-1s2-3 4-4c5-1 10-3 16-3 3 0 4-1 4-4 0-1-1-3 1-3a3 3 0 0 1 3 2c1 4 3 4 6 3a8 8 0 0 1 2 0c2 0 4 0 4 2 0 3-3 2-4 2-7 0-6 0-7 7-1 8 2 16 2 24v4c-1 1-1 3-3 3a3 3 0 0 1-2-4v-1c0-3 2-7-4-5-6 1-10-3-10-9zm12-1c0-3-1-6-3-6-3 1-5 4-5 8 0 3 1 4 4 4 4 0 4-4 4-6zM97 76a47 47 0 0 0-11 2c-2 0-4 1-5-2 0-2 2-2 4-2 7-2 14-3 21 0 6 2 6 5 2 9L98 95c-2 1-3 3-3 6 0 1 0 3-2 4l-4-1v-6a152 152 0 0 1 12-14c2-2 5-3 4-6-2-3-5-2-8-2zM95 113c0-2 0-4 2-4 4 0 3 3 3 6 1 1 0 3-2 3-3 0-3-3-3-5z" class="b"/><path d="M99 40c0 2 0 6-4 6-3 0-4-1-4-4 0-4 2-7 5-8 2 0 3 3 3 6z" class="a"/><path fill="none" d="M0 0h128v128H0z"/></svg>