<svg xmlns="http://www.w3.org/2000/svg" viewBox="0 0 128 128"><defs><style>.a{fill:#8ba92f}.b{fill:#f7f9f2}</style></defs><path d="M59 46c8 2 6 9 9 14l-1 2c-9 6-19 13-30 13-14 0-23-13-18-25 2-6 1-9-1-14L7 13c-1-2-1-3 2-4l7-2a9 9 0 0 1 12 4l7 14c1 1 1 3 3 2s2-2 1-4a3 3 0 0 1 0-1c0-2-3-5-1-7 3-3 7-6 12-5a10 10 0 0 0 8-2c5-4 11-2 15 3a41 41 0 0 1 5 21c0 3 3 6 1 8s-6 2-9 2c-4 0-8 2-11 4zM38 67c6-1 12-4 17-7 2-1 4-2 2-5s-3 0-5 1c-4 3-9 6-14 6s-8-2-6-7a33 33 0 0 1 14-18c1-1 2-1 2-3l-4-1a13 13 0 0 0-8 5c-2 3-3 2-5-1l-9-21c-1-1-2-3-4-2s0 3 0 4l8 16c3 6 5 10 1 17-4 8 1 16 11 16zm21-31a21 21 0 0 1-2-3 70 70 0 0 1-5-13 3 3 0 0 0-4-2c-1 0-2 1-1 2a68 68 0 0 0 7 17l3 1 2-2zm11-6a32 32 0 0 0-4-14c-1-1-2-3-3-2l-1 4 4 12c1 1 0 4 3 4s0-3 1-4zM44 51c3 0 4-2 6-3v-3a2 2 0 0 0-2 0c-2 1-3 3-4 6zM63 98c-9-5-10-8-9-16 0-2 1-4 3-4l4-2c5-1 8-2 8-8s3-7 11-8a9 9 0 0 1 10 7c0 4 4 7 4 11 1 3 3 1 4 0 4-3 8-3 12 0s5 7 4 12l-1 8c0 2 0 4 3 3 2 0 2 1 3 2l2 4c4 7 4 7-2 12a13 13 0 0 1-16 2c-5-3-7-8-9-13-1-1 0-4-3-3a4 4 0 0 0-3 4c0 3 1 7-2 11-5 4-11 5-15 0-3-3-5-2-7-1-3 1-5 1-7-2a93 93 0 0 0-6-10c-1-2-1-3 1-4l11-5zm12 8a46 46 0 0 0 0 4c0 2 0 5 3 5s2-3 2-5a11 11 0 0 0 0-3c-1-4 0-6 4-7l12-7c1-1 2-2 3-1l1 3c0 6 1 11 4 15 2 3 4 6 8 4l2-2c-1-2-2-2-3-1-3 1-4-1-4-4-2-6-3-11-1-17 0-2 1-4-1-5s-3 0-4 1l-16 9c-1 1-3 2-4 1-2-2 1-12 3-13s4-2 2-3c-5-2-4-5-3-8a3 3 0 0 0-3-4c-2 0-3 1-3 3 2 9-4 11-10 12a24 24 0 0 0-3 1c-1 0-3 0-2 2s1 2 3 2a26 26 0 0 0 8-2c3-1 3 0 3 2 1 8-1 15-10 17a5 5 0 0 0-2 1c-1 1-3 1-2 3s3 1 5 1l8-4z" class="a"/><path d="M38 67c-10 0-15-8-11-16 3-6 2-11-1-17l-8-16c-1-1-2-3 0-4s3 1 4 2l9 21c2 3 3 4 5 1a13 13 0 0 1 8-5l4 1c0 2-1 2-2 3a33 33 0 0 0-14 18c-2 5 1 7 6 7s10-3 14-6c2-1 4-3 5-1s0 4-2 5c-5 3-11 6-17 7zM59 36l-2 2-3-1a68 68 0 0 1-7-17c-1-1 0-2 1-2a3 3 0 0 1 4 2 70 70 0 0 0 5 13 21 21 0 0 0 2 3zM70 30c-1 1 1 3-1 4s-2-3-3-4l-4-12c0-1-1-3 1-4s2 1 3 2a32 32 0 0 1 4 14zM75 106l-8 4c-2 0-4 2-5-1s1-2 2-3a5 5 0 0 1 2-1c9-2 11-9 10-17 0-2-1-3-3-2a26 26 0 0 1-8 2c-2 0-3 0-4-2s2-2 3-2a24 24 0 0 1 3-1c6-1 12-3 10-12 0-2 1-3 3-3a3 3 0 0 1 3 4c-1 3-2 6 3 8 2 1 0 2-2 3s-5 11-3 13c1 1 2 0 4-1l16-9c1-1 2-3 4-1s1 3 1 5c-2 6-1 11 1 17 0 3 1 5 4 4 1-1 2-1 3 1l-2 2c-4 2-6-1-8-4-3-4-4-9-4-15 0-1 1-3-1-3l-3 1-12 7c-4 1-5 3-4 7a11 11 0 0 1 1 3c-1 2 1 5-3 5-3 0-3-3-3-5a46 46 0 0 1 0-4z" class="b"/><path fill="none" d="M0 0h128v128H0z"/></svg>