<svg xmlns="http://www.w3.org/2000/svg" viewBox="0 0 128 128"><defs><style>.a{fill:#fe082b}.b{fill:#feecef}</style></defs><path d="M51 34c0 4-2 7-4 10-2 1-3 2-1 4s3 0 4-1c3-4 8-3 12-4l2 1a14 14 0 0 1-3 16c-8 8-16 9-25 3-3-2-4 1-5 2-4 5-8 6-12 3-5-3-6-9-3-13a19 19 0 0 1 2-3c2-2 2-4-1-6-5-4-4-12 2-15a25 25 0 0 1 4-2c2 0 2-1 2-3l-2-6c-2-8-1-10 8-11 4 0 7 3 9 6a9 9 0 0 1 1 4c0 5 3 8 7 10 3 1 3 3 3 5zm-14 3c0 2-2 3-3 4L22 58v4c2 1 3-1 4-2l6-6c2-2 4-2 6 1 2 4 5 6 9 5 5-1 10-3 12-9-4 0-6 3-8 4-6 3-8 3-12-3-1-2-3-3-6-3l8-10c1-1 3-2 3-4-1-2-4-2-6-2s-2 0-2-3l-2-11c-1-1-2-3-3-2l-1 3 2 7c1 4 1 8-4 8l-5 2c-2 1-3 1-2 3s2 1 4 0c3-2 7-3 12-3zM109 31c-3 4 0 7 3 12 2 4 3 10 1 14-3 6-8 12-16 11-7-1-13-5-16-12-1-2-1-3-4-3-5 0-11-8-9-12 3-4 5-7 4-12-1-2 2-7 7-6 4 0 6-1 7-5 0-6 5-7 9-7s7 4 8 8c0 3 2 3 3 5 3 2 3 2 3 7zm-6 11h-9c-2 0-3 0-3-2 0-5 2-8 8-9 1 0 3 1 3-1s-2-2-3-2c-4 0-5-1-3-5 0-1 1-4-1-4s-3 1-3 3c-1 5-4 8-9 8-1 0-4-1-4 1 1 3 3 3 5 2 1 0 3-1 4 1l-1 7c-1 2-3 2-4 2h-5c-1 0-2-1-2 1a2 2 0 0 0 2 2c7-2 9 2 10 8a6 6 0 0 0 1 2c5 6 12 6 17 0v-3c-1-2-2 0-2 1l-5 3c-2 1-4 1-6-1s-4-6-3-9c1-2 3-2 5-2 3 0 6 0 8-3zM101 106c-2 6-3 14-10 18-4 1-7 1-9-1s-6-5-10-4c-7 1-7-4-9-8s1-5 2-6c6-8 14-12 23-12 7 0 13 6 13 13zm-15-6a24 24 0 0 0-15 8v4c1 2 2-1 3-2a13 13 0 0 1 6-4c3-2 7-5 9-2 3 3-1 6-3 9-1 1-2 2 0 4 1 1 3 0 4-1a24 24 0 0 0 3-7c2-6 0-9-7-9zM104 116c2-12-1-23 1-34 0-3 6-8 10-7 5 2 8 7 8 13-1 8-3 16-1 24 1 4-1 10-4 11-5 2-11 0-14-4a4 4 0 0 1 0-3zm10-12c1-6 0-13 2-19a2 2 0 0 0-2-2l-2 1c-1 6-2 11-1 17 0 2 1 2 3 3zm-1 7a3 3 0 0 0-2 3c0 2 1 3 3 3 1-1 2-2 1-4 0-1 0-2-2-2zM36 112c0 3-1 7-5 8-8 2-12-2-14-6a128 128 0 0 1-6-24c-1-3 0-4 3-4a36 36 0 0 0 4-1c7-1 11 2 12 9 0 4 1 9 5 11l1 7zM19 95a90 90 0 0 0 5 16 3 3 0 0 0 4 2 2 2 0 0 0 1-3 33 33 0 0 1-6-16c0-2-1-2-3-2s-1 1-1 3zM59 103v4a9 9 0 0 1-9 9c-4 0-9-4-9-8a130 130 0 0 0-2-19c0-4 3-6 6-7a9 9 0 0 1 10 1c4 4 3 10 4 15v5zm-7-2l-1-11c0-1-1-2-3-2s-1 1-1 3a73 73 0 0 1 1 15l2 3c2 0 2-2 2-4z" class="a"/><path d="M37 37c-5 0-9 1-12 3-2 1-3 2-4 0s1-3 2-3l5-2c5 0 5-4 4-8l-2-7c0-1-1-3 1-3s2 1 3 2l2 11c0 3 0 3 2 3s5 0 6 2c0 2-2 3-3 5l-8 9c3 0 5 1 7 3 3 6 5 6 11 3l8-4c-2 6-7 8-12 9-4 1-7-1-9-5-2-3-3-3-6-1l-6 6c-1 1-2 3-4 2v-4l12-17c1-1 3-2 3-4zM103 42c-2 3-5 3-8 3-2 0-4 0-5 2-1 3 1 7 3 9s4 2 6 1l5-3c0-1 1-3 2-1v3c-5 6-12 6-17 0a6 6 0 0 1-1-2c-1-6-3-10-10-8a2 2 0 0 1-2-2c0-2 1-2 2-2l5 1c2 0 3 0 4-2l1-8h-4c-2 1-5 1-5-2s3-1 4-1c5 0 8-3 9-8 0-2 0-4 3-3s1 3 1 4c-2 4-1 5 3 5 1 0 3 0 3 2s-2 1-3 1c-6 1-8 4-8 9 0 2 1 2 3 2h9zM86 100c7 0 9 3 7 9a24 24 0 0 1-3 7c-1 1-3 2-4 1-2-2-1-3 0-4 2-3 6-6 3-9-2-3-6 0-9 2a13 13 0 0 0-6 4c-1 1-1 3-3 2s-1-3 0-4a24 24 0 0 1 15-8zM114 104c-2-1-3-1-3-3-1-6 0-11 1-17l2-1a2 2 0 0 1 2 2c-2 6-1 13-2 19zM113 111c2 0 2 1 2 2 1 2 0 3-2 4-1 0-2-1-2-3a3 3 0 0 1 2-3zM19 95c0-2-1-3 1-3s3 0 3 2a33 33 0 0 0 6 16 2 2 0 0 1-1 3 3 3 0 0 1-4-2 90 90 0 0 1-5-16zM52 101v4c0 2 0 4-2 4l-2-3a73 73 0 0 0-1-15c0-2-1-3 1-3s3 1 3 2l1 11z" class="b"/><path fill="none" d="M0 0h128v128H0z"/></svg>