<svg xmlns="http://www.w3.org/2000/svg" viewBox="0 0 128 128"><defs><style>.b{fill:#fcf5f8}</style></defs><path fill="#e05892" d="M74 64c6-5 10-6 16-1a4 4 0 0 0 3 1c12-1 18 5 16 17l1 3c12 12 4 28-4 35-2 2-7 3-10 1s-8-4-7-9a26 26 0 0 0 0-4h-1c-4 1-6 5-11 2-6-4-9-8-8-15 0-2 1-3-2-4-6-3-9-8-8-15-8 4-15 2-22-3-3-3-4 1-6 3-2 1-1 5-4 5s-6 1-9-1c-5-3-8-9-6-14a27 27 0 0 1 4-7c3-3 3-5-1-7-7-4-6-13 1-18 3-1 8-1 9-5l-3-9c-2-9-2-9 7-12 5-2 11 1 13 6a13 13 0 0 1 1 3c0 7 4 12 10 15 5 2 3 7 2 10l-5 8c-2 2-2 4-1 6 2 2 4 0 5-1 4-5 10-4 15-6 2-1 4 0 4 3 0 4 3 8 1 12l-2 1-1 2 2-1zM40 39a15 15 0 0 1-4 6L20 66c-1 2-1 4 1 5 2 2 3 0 4-1l8-8c3-2 5-3 8 1 6 8 20 7 24-3v-2h-2a40 40 0 0 1-9 5c-5 3-8 2-11-3-2-3-4-5-9-5 4-4 6-9 10-12 1-1 4-3 3-6s-4-2-7-2h-3c1-6-1-12-2-18-1-2-2-3-4-3-2 1-1 3 0 4l3 15c0 2-1 3-2 3a74 74 0 0 0-10 4c-1 0-4 1-3 4 1 2 3 0 5 0a52 52 0 0 1 16-5zm43 54l1-10c0-3 1-5 4-5l9-2c1 0 3 0 4-2s-2-3-4-3a15 15 0 0 0-5 1c-3 1-6 2-7-2a2 2 0 0 0-3-2l-1 3c0 3-2 4-5 4a26 26 0 0 0-5 2c-1 0-4 0-4 2s3 3 5 2l3-1c4-1 4 1 4 4l-2 12a5 5 0 0 0 3 4c2 2 2 0 4-1a37 37 0 0 1 12-7c5-2 8 1 7 6a25 25 0 0 1-5 10c0 1-2 2 0 4 2 1 3 0 5-1a21 21 0 0 0 5-11c1-9-6-15-14-12l-11 5z"/><path d="M40 39a52 52 0 0 0-16 5c-2 0-4 2-5 0-1-3 2-4 3-4a74 74 0 0 1 10-4c1 0 2-1 2-3l-3-15c-1-1-2-3 0-4 2 0 3 1 4 3 1 6 3 12 2 18h3c3 0 6-1 7 2s-2 5-3 6c-4 3-6 8-10 12 5 0 7 2 9 5 3 5 6 6 11 3a40 40 0 0 0 9-5h2v2c-4 10-18 12-24 3-3-4-5-4-8-1l-8 8c-2 1-2 3-4 1-2-1-2-3-1-5l16-21a15 15 0 0 0 4-6zM83 93l11-5c8-3 15 3 14 12a21 21 0 0 1-5 11c-2 1-3 2-5 1-2-2 0-3 0-4a25 25 0 0 0 5-10c1-5-2-8-7-6a37 37 0 0 0-12 7c-2 1-2 3-4 1a5 5 0 0 1-3-4l2-12c0-3 0-5-4-4l-2 1c-3 1-5 1-6-2s3-2 4-2a26 26 0 0 1 6-2c2-1 4-1 4-5l1-2a2 2 0 0 1 3 2c1 4 4 3 7 2a15 15 0 0 1 5-1c2 0 4 1 4 3s-3 2-4 2l-9 2c-3 1-4 2-4 5l-1 10z" class="b"/><path fill="none" d="M0 0h128v128H0z"/></svg>