<svg xmlns="http://www.w3.org/2000/svg" viewBox="0 0 128 128"><defs><style>.a{fill:#1d451e}.b{fill:#e8ece8}</style></defs><path d="M47 45a17 17 0 0 1-8 3c-4 1-7 3-7 8 0 9-6 13-13 10-4-2-6-5-6-9 0-3-1-4-3-4-4-1-4-4-4-7a71 71 0 0 0-1-13c-1-6 8-11 13-8a21 21 0 0 1 3 1c1-3 8-9 11-8s7-1 11 1c5 3 5 8 5 13s2 5 6 5l22-4c4-1 6 3 8 5s3 7 0 10c-2 3-4 5-9 4s-10 2-15 2c-7 2-11-1-13-9zm-33-6a4 4 0 0 0 0 1c0 2-2 5 1 6 3 0 1-3 2-5a5 5 0 0 1 5-2c3 1 1 3 1 4l-2 12 1 3c2 0 2-2 2-3l3-12c1-5 2-6 6-3 1 1 2 2 2 0a103 103 0 0 0-1-12 2 2 0 0 0-2-1l-1 2c1 2 2 5 0 6-1 2-4 1-7 1l-5 1c-1 0-2 0-2-2 0-1 0-3-2-3s-1 2-1 3a25 25 0 0 0 0 4zm44 8l17-3c1 0 2 1 2-1s-1-2-3-2l-16 3-2 1a2 2 0 0 0 2 2zm-17-7l-1-12a2 2 0 0 0-2-2l-1 1c1 4 0 9 4 13zM85 103c-1 6-4 9-9 10l-12 2c-8 1-13-3-12-11l-2-6c-1-2-4-4-3-6 2-3 4-6 7-7 7 0 15-4 23-1 3 1 7 7 5 11v3c2 1 3 0 3-1l24-21c5-5 10-5 15 1 3 3 3 10 0 11-8 4-6 10-4 16 1 5-2 7-4 9-3 2-7 4-10 2-4-3-8-6-14-5-3 0-4-5-7-7zm20-11l2 1a72 72 0 0 1 1 9c0 2-2 5 2 5 3 0 0-3 1-5a10 10 0 0 0 0-5c-2-5-1-10 4-12 1-1 3-2 2-3-1-2-3 0-4 0L96 98c-1 1-3 2-1 3 1 2 2 0 3-1l7-8zm-48 1c1 2 2 2 3 2s4-2 4 1 2 7-2 8l-2 2 3 1 10-1c1 0 3 0 3-2s-2-1-4-1-4 2-5-1a16 16 0 0 1 0-7c1-3 3-1 5-2l2-1-3-1-14 2zM26 70a6 6 0 0 1 8 3l7 7c4 2 5 6 4 10l-5 21c-2 5-11 6-14 2a42 42 0 0 1-4-5c-1-2-3-3-5-1s-3 1-4-1L7 91c-2-6 0-10 6-12 2-1 3-1 3-3 1-4 6-6 10-6zm-6 27c0-6 0-6 7-8h2c4-1 5 0 4 3l-3 11 1 4c2 0 2-2 2-3l4-13c2-4 0-6-5-5-3 1-4-1-4-4v-3l-2-1-1 1v4c0 4-1 6-6 5-4 0-4 0-2 4 0 2 0 4 3 5zM92 51V29c0-4 5-8 9-8a10 10 0 0 1 11 10c0 3 0 4 3 4 7 0 10 4 10 10 0 5-4 9-10 9-2 0-4 0-3 3 0 4-4 7-6 10h-2c-9-2-11-5-12-14v-2zm8-10v14l2 2c2 0 2-1 2-2l-1-6c0-3 0-5 4-4a42 42 0 0 0 6 1l4-1c0-2-2-2-3-2a74 74 0 0 0-8-1c-2 0-3-1-3-3l1-7c0-2-1-3-2-3-2 0-1 2-1 3l-1 9z" class="a"/><path d="M14 39a25 25 0 0 1 0-4c0-1-1-3 1-3s2 2 2 3c0 2 1 2 2 2l5-1c3 0 6 1 7-1 2-1 1-4 0-6l1-2a2 2 0 0 1 2 1 103 103 0 0 1 1 12c0 2-1 1-2 0-4-3-6-2-7 3l-2 12c0 2 0 3-2 3l-1-3 2-12c0-1 2-3-1-4a5 5 0 0 0-5 2c-1 2 1 5-2 5-3-1-1-4-1-6a4 4 0 0 1 0-1zM58 47a2 2 0 0 1-2-2l2-1 16-3c2 0 3 0 3 2s-1 1-2 1l-17 3zM41 40c-4-4-3-9-4-13l1-1a2 2 0 0 1 2 2l1 12zM105 92l-7 8c-1 1-2 3-3 2-2-2 0-3 1-4l17-15c1-1 3-3 4-1 1 1-1 2-2 3-5 3-6 7-4 12a10 10 0 0 1 0 5c-1 2 2 5-1 5-4 0-2-3-2-5a72 72 0 0 0-1-9zM57 93l14-2 3 1-2 1c-2 1-4-1-5 2a16 16 0 0 0 0 7c1 3 3 1 5 1s4-1 4 1-2 2-4 2l-9 1-3-1c0-2 1-1 2-2 4-2 2-5 2-8s-3-1-4-1-2 0-3-2zM20 97c-3-1-3-3-3-4-2-5-2-5 2-5 5 1 6-1 6-5v-4l1-1 2 1v3c0 3 1 5 4 4 5-1 6 1 5 5l-4 13c0 1 0 3-2 3l-1-4 3-11c1-4 0-4-4-3h-2c-7 2-7 2-7 8zM100 41v-9c0-1 0-3 2-3 1 0 2 1 2 3l-1 7c0 2 1 3 3 3a74 74 0 0 1 8 1c1 0 3 0 3 2l-4 1a42 42 0 0 1-6-1c-4-1-4 1-4 4l1 6c0 1 0 2-2 2l-2-2V41z" class="b"/><path fill="none" d="M0 0h128v128H0z"/></svg>