<svg xmlns="http://www.w3.org/2000/svg" viewBox="0 0 128 128"><defs><style>.a{fill:#5aa930}.b{fill:#f4f9f1}</style></defs><path d="M61 59h3c6 2 8 6 8 13a2 2 0 0 1-2 2c-5 2-9 5-15 2l-3-1c-6-3-10-2-16 1-9 4-20 0-21-12-1-13-1-26-4-38-1-4 0-5 3-5a12 12 0 0 0 2-1c6-2 6-2 4-9-1-2 0-4 3-4 5-1 10-5 15-1 2 2 4 4 4 7 1 2 2 3 5 3 10-2 16 5 13 14l-1 7c-1 4-3 6 1 10 3 2 3 7 1 12zm-7-7c-2-2-4-2-5-1-7 1-12 5-19 2-1-1-3 0-3-2a3 3 0 0 1 2-3 34 34 0 0 1 6-2c4 0 10 2 12-1l5-13v-1c2-7 1-8-6-7-9 0-9 0-11-8-1-2-2-4-4-3-3 1-1 3 0 4 2 6 1 7-5 8-3 1-8 0-4 6a2 2 0 0 1 0 2c-1 10 1 20 1 29 0 6 3 8 9 7 2-1 5-1 4-4-1-2-3 0-4 0a3 3 0 0 1-4-2v-7c1-1 3 1 4 2a131 131 0 0 0 26 10c1 1 3 2 5 0a101 101 0 0 1-18-8l-3-2c0-2 2-2 3-3l9-3zM95 109c0 5-3 10-7 10-7 2-12-1-15-6-4-10-6-20-8-31 0-2 0-4 3-4l6-1c8-1 13 3 14 11 0 6 2 11 6 15 2 2 1 4 1 6zm-8 0l-3-7c-3-4-4-9-4-14 0-2-2-3-4-3-3 0-2 2-1 4l3 11a84 84 0 0 0 3 10 4 4 0 0 0 4 2c2-1 2-2 2-3zM124 99c-1 3 1 6-1 10-3 4-7 6-12 5a11 11 0 0 1-8-10 102 102 0 0 0-2-21 9 9 0 0 1 6-10c4-2 8-2 12 2 5 5 3 12 5 18v6zm-8-1l-2-15c0-2-1-3-3-3l-2 2a108 108 0 0 1 2 22 2 2 0 0 0 3 2c2 0 2-1 2-3z" class="a"/><path d="M54 52l-9 3c-1 1-3 1-3 3l3 2a101 101 0 0 0 18 8c-2 2-4 1-5 0a131 131 0 0 1-26-10c-1-1-3-3-4-2v7a3 3 0 0 0 4 2c1 0 3-2 4 0 1 3-2 3-4 4-6 1-9-1-9-7 0-9-2-19-1-29a2 2 0 0 0 0-1c-4-6 1-6 4-7 6-1 7-2 5-8-1-1-3-3 0-4 2-1 3 1 4 3 2 8 2 8 11 8 7-1 8 0 6 7v1c-2 5-2 10-5 13s-8 1-12 1a34 34 0 0 0-6 2 3 3 0 0 0-2 3c0 2 2 1 3 2 6 3 12-1 19-2 1-1 3-1 5 1zM30 36c4-2 9 0 13-2 3 0 4-2 4-5s-2-2-4-2l-14 2c-3 0-2 3-3 4 0 3 3 2 4 3zm9 2a25 25 0 0 0-9 1c-1 0-3 0-3 3s2 2 4 2l10-1c2 0 4-1 4-4s-2-1-4-1h-2zM87 109c0 1 0 2-2 3a4 4 0 0 1-4-2 84 84 0 0 1-3-10c-2-3-2-7-3-11-1-2-2-4 1-4 2 0 3 1 4 3 0 5 1 10 3 14l4 7zM116 98v5c0 2 0 3-2 3a2 2 0 0 1-3-2 108 108 0 0 0-2-22l2-2c2 0 3 1 3 3l2 15z" class="b"/><path d="M30 36c-1-1-4 0-4-3 1-1 0-4 3-4 5-1 9-3 14-2 2 0 4-1 4 2s-1 5-4 5c-4 2-9 0-13 2zM39 38h2c2 0 4-1 4 1s-2 4-4 4l-10 1c-2 0-4 0-4-2s2-3 3-3a25 25 0 0 1 9-1z" class="a"/><path fill="none" d="M0 0h128v128H0z"/></svg>