<svg xmlns="http://www.w3.org/2000/svg" viewBox="0 0 128 128"><defs><style>.a{fill:#fe082a}.b{fill:#feedef}</style></defs><path d="M42 50l-17 4c-4 1-10-7-10-12l1-15V16c0-2 1-2 2-2 11-5 23-6 35-5 5 0 10 6 10 12l-1 1c-5 2-2 6-2 9l-1 31-1 16c-8-8-22-12-16-28zM24 19c1 3 3 3 5 3l13-3c6-1 6 0 7 6 0 11 1 23-1 34 0 1 1 4 3 3s2-2 2-3l-1-31c0-3-1-6 2-9 1-2-1-3-2-3-9 0-19-1-28 3zm19 22c-2-1-3-3-2-6 0-5-2-6-7-6-3 0-6 2-9 0-1-1-2 0-2 2l-1 11c0 2 1 5 4 4 6-1 12-1 17-5zM93 5c5 2 13 2 15 10a4 4 0 0 0 2 2c5 3 6 7 5 11l-4 8c-4 3-3 8-4 12-1 2 1 2 3 3 2 2 6 2 7 7 1 3 0 6-3 8s-6 3-9 1l-4-2c-4-1-6-1-9 2s-7 4-11 5c-3 1-4-3-5-5-2-4-1-8-5-11 1-10-6-18-7-28 0-1-1-3 1-3 3-2 2-4 1-6-1-3 0-4 3-5 7-4 15-7 24-9zm3 9a6 6 0 0 0-7-1l-11 4c-5 2-5 3-1 7 1 1 3 1 2 3s-2 2-4 2-3-1-3 2c2 6 3 12 9 16l-2 4c-1 0-2 1-1 2a2 2 0 0 0 3 0c3-2 5 0 6 1 2 3-1 3-2 5-1 1-4 2-2 4s3 0 5-2a20 20 0 0 0 2-2c2-3 4-3 7-2l10 3h3c1-1-1-2-2-2a54 54 0 0 0-9-3c-3-1-4-2-2-5 2-2 5-4 3-7s-2-4 0-5a23 23 0 0 0 4-5c2-2 5-5 4-8s-5-2-8-2a5 5 0 0 1-1-1 13 13 0 0 0 1-1c0-2 3-4 0-5s-2 2-4 3a3 3 0 0 0 0 1c-3 5-4 5-8 0l-3-1c-2 0 0 2 1 3 0 1 2 2 0 3h-4c-1-1-3-1-3-3a4 4 0 0 1 3-3l14-5zM86 93c11 0 17 8 14 17-2 5-4 11-10 14-3 1-6 1-8-1-3-4-7-5-11-4-6 1-6-5-8-8-2-2 0-4 1-6 6-7 14-12 22-12zm0 7a24 24 0 0 0-15 8v4c1 2 3-1 3-2a13 13 0 0 1 6-4c3-2 7-5 9-2 3 3-1 6-3 9-1 1-2 2 0 4 1 1 3 0 4-1a24 24 0 0 0 3-7c2-6 0-9-7-9zM104 115c1-11-1-22 1-33 0-3 6-8 10-7 6 2 8 7 8 13-1 8-3 16-1 24 1 5-2 10-5 11a11 11 0 0 1-13-4v-4zm10-11c1-6 0-12 2-18a2 2 0 0 0-2-3c-2-1-2 1-2 2l-1 14c0 2 0 4 3 5zm-1 13a3 3 0 0 0 2-3l-1-3-3 3 2 3zM36 112c0 3-1 7-6 8-6 1-11-1-13-6a125 125 0 0 1-6-24c-1-3-1-4 2-4a35 35 0 0 0 6-1c6-1 10 2 11 9 0 4 1 8 5 11l1 7zM19 94a85 85 0 0 0 5 18 3 3 0 0 0 4 1 2 2 0 0 0 1-3 35 35 0 0 1-6-16 2 2 0 0 0-3-2l-1 2zM59 103c-1 2 1 5-1 8-2 4-5 6-9 5-5-1-8-4-8-9a110 110 0 0 0-1-16 8 8 0 0 1 7-10c5-1 10 2 11 7l1 7v8zm-7-2l-1-11c0-1-1-3-3-2s-1 2-1 3a67 67 0 0 1 1 14c0 1 0 4 3 4 2-1 1-3 1-5v-3z" class="a"/><path d="M24 19c9-4 19-3 28-3 1 0 3 1 2 3-3 2-2 6-2 9l1 31c0 1 0 3-2 3s-3-2-3-3c2-11 1-23 1-34-1-6-1-7-7-6l-13 3c-2 0-4 0-5-3z" class="b"/><path d="M43 41c-5 4-11 4-17 5-3 1-4-2-4-4l1-11c0-2 1-3 2-2 3 2 6 0 9 0 5 0 7 1 7 6-1 3 0 5 2 6zm-6-6c0-2 0-3-3-3-4 0-8 4-8 7s2 3 4 3c5 0 7-2 7-7zM96 14l-14 5a4 4 0 0 0-3 3c0 2 2 2 3 3h4c2-1 0-2 0-3-1-1-2-2-1-3s3 0 3 1c5 5 5 5 8 0a3 3 0 0 1 0-1c2-1 2-5 4-3s0 3 0 5a13 13 0 0 1-1 1 5 5 0 0 0 1 1c3 0 6-1 8 2s-2 6-4 8a23 23 0 0 1-4 5c-2 1-3 3 0 5s-1 5-3 7c-2 3-1 4 2 5a54 54 0 0 1 9 3c1 0 2 0 2 2s-2 1-3 0l-10-3c-3-1-5-1-7 2a20 20 0 0 1-2 2c-2 2-3 4-5 2s1-3 2-4c1-2 4-2 2-5-1-1-3-2-6 0a2 2 0 0 1-3-1c-1-1 0-2 1-2l2-4c-6-4-7-10-9-16 0-3 1-2 3-2s3 0 4-2-1-2-2-3c-4-4-4-5 1-7l11-4a6 6 0 0 1 7 1zm-4 28c-4 0-6-2-7-6 0-1-1-3 1-4 3 0 2 2 3 3 0 2 1 4 3 5s4-1 5-3c-5-1-6-4-6-9 3 1 4 2 4 4s0 3 2 3l1-2c1-2 0-5 3-5 1 0 3 0 2-1 0-2-2-2-3-2-7 2-14 3-22 7 5 1 5 3 4 7-1 5 2 7 7 5l3-2zm3 4c-4-1-7 2-10 3 6 4 6 4 10-3zM86 100c7 0 9 3 7 9a24 24 0 0 1-3 7c-1 1-3 2-4 1-2-2-1-3 0-4 2-3 6-6 3-9-2-3-6 0-9 2a13 13 0 0 0-6 4c0 1-1 3-3 2s-1-3 0-4a24 24 0 0 1 15-8zM114 104c-3-1-3-3-3-5l1-14c0-1 0-3 2-2a2 2 0 0 1 2 3c-2 6-1 12-2 18zM113 117c-1-1-2-1-2-3s1-3 3-3 1 2 1 3a3 3 0 0 1-2 3zM19 94l1-2a2 2 0 0 1 3 2 35 35 0 0 0 6 16 2 2 0 0 1-1 3 3 3 0 0 1-4-1 85 85 0 0 1-5-18zM52 101v3c0 2 1 4-1 5-3 0-3-3-3-4a67 67 0 0 0-1-14c0-1-1-3 1-3s3 1 3 2l1 11z" class="b"/><path d="M37 35c0 5-2 7-7 7-2 0-4 0-4-3 1-3 4-7 8-7 3 0 3 1 3 3zM92 42l-3 2c-5 2-8 0-7-5 1-4 1-6-4-7 8-4 15-5 22-7 1 0 3 0 3 2 1 1-1 1-2 1-3 0-2 3-3 5l-1 2c-2 0-2-1-2-3s-1-3-4-4c0 5 1 8 6 9-1 2-3 3-5 3s-3-3-3-5c-1-1 0-3-3-3-2 1-1 3-1 4 1 4 3 6 7 6zM95 46c-4 7-4 7-10 3 3-1 6-4 10-3z" class="a"/><path fill="none" d="M0 0h128v128H0z"/></svg>