<svg xmlns="http://www.w3.org/2000/svg" viewBox="0 0 128 128"><defs><style>.a{fill:#8ba92f}.b{fill:#f7f9f2}</style></defs><path d="M63 97c-7-3-11-7-9-15 0-2 1-4 3-4l4-1c4-2 8-3 8-9 1-6 5-8 12-8a9 9 0 0 1 9 8c1 4 5 6 5 11l3-1c4-4 9-3 13 1s4 8 3 13l-1 7c0 1 0 2 2 2s3 0 4 2l5 10-2 3c-8 11-20 9-26-3l-2-5c-1-1-1-4-3-3-1 1-2 1-2 3a40 40 0 0 0 0 5c0 5-3 8-7 9s-8 2-11-2c-2-3-4-2-6-1-4 1-6 1-8-3s-7-7-7-11 8-4 11-7zm12 9a36 36 0 0 0 0 5c0 2 1 4 3 4 3 0 2-2 3-4a21 21 0 0 0-1-4c-1-4 1-6 4-7l11-6c1-1 3-3 4-2l1 5c0 5 1 9 4 13 2 3 4 6 8 4 1 0 3-1 2-3h-2c-4 1-4-1-5-4-2-6-3-11-1-17 0-2 1-4-1-5s-3 0-4 1l-16 9c-1 1-3 2-4 0-1-1 1-11 3-12s4-2 2-3c-5-2-4-5-4-8 1-2 0-4-2-4s-3 2-3 4c1 7-3 9-9 11a36 36 0 0 0-5 1l-2 2a2 2 0 0 0 3 2 20 20 0 0 0 8-2c4-2 4 0 4 3 1 8-2 14-10 16a9 9 0 0 0-2 1c-1 1-3 1-2 3s2 2 4 1zM62 56c1 3-1 4-3 6-9 5-19 5-28 7h-6c-5 3-8 1-10-3l-1-2c-2-2-7-6-5-8 3-4 7-8 14-8l25-3c8-2 14 2 14 11zm-33 5c6-2 15-1 22-4 2-1 3-1 3-4l-4-1c-9 2-19 4-28 4l-3 2 2 3h8zM46 37c-3-1-6-1-8-3s-8-1-13-1c-3 0-6 2-8 0-3-2-5-6-7-10-2-1-1-2 0-3 3-6 7-8 14-8a73 73 0 0 1 29 4c7 2 9 12 3 16a15 15 0 0 1-10 5zM30 20h-8c-2 0-3 0-3 2s1 3 3 3h3c7 0 14-2 20 3 2 2 5 0 6-2s-1-3-3-4a49 49 0 0 0-18-2z" class="a"/><path d="M75 106l-9 4c-2 1-3 1-4-1s1-2 2-3a9 9 0 0 1 2-1c8-2 11-8 10-16 0-3 0-5-4-3a20 20 0 0 1-8 2 2 2 0 0 1-3-2l2-2a36 36 0 0 1 5-1c6-1 10-4 9-11 0-2 1-4 3-4s3 2 2 4c0 3-1 6 4 8 2 1 0 2-2 3s-4 11-3 13c1 1 3 0 4-1l16-9c1-1 2-3 4-1s1 3 1 5c-2 6-1 11 1 17 0 3 1 5 5 4 1 0 2-1 2 1l-2 2c-4 2-6-1-8-4-3-4-4-8-4-13 0-2 1-4-1-5s-3 1-4 2l-11 6c-3 1-5 3-4 7a21 21 0 0 1 1 4c0 2 0 4-3 4-2 0-3-2-3-4a36 36 0 0 1 0-5zM29 61h-8l-2-3 3-2c9 0 19-2 28-4l4 1c0 3-1 3-3 4-7 3-16 2-22 4zM30 20a49 49 0 0 1 18 2c2 1 4 2 3 4s-4 4-6 2c-6-5-13-3-20-3h-3c-2 0-3-1-3-3s1-2 3-2h8z" class="b"/><path fill="none" d="M0 0h128v128H0z"/></svg>