<svg xmlns="http://www.w3.org/2000/svg" viewBox="0 0 128 128"><defs><style>.a{fill:#3290d4}.b{fill:#f1f7fb}</style></defs><path d="M126 29c-4 2-7 3-7 8 1 3-3 2-5 4 4 1 10 7 10 11l-1 2c-4 2-7 7-14 6-5-1-10 1-16-2-1 3 2 5 0 8-3 4-7 6-11 5-4 0-7-4-8-8a30 30 0 0 1-2-21c1-5-2-9-4-13-1-3-1-5 3-5 5-1 7-6 10-10 2-4 4-5 8-3a4 4 0 0 0 4 0c4-2 8-5 13-3l1-1c10-5 16-3 18 8l1 2zM78 49c0 5 0 10 4 14 1 1 2 2 3 1a2 2 0 0 0 1-3c-6-7-3-14-2-21 0-7 3-12 11-13l4-2c1 0 2 0 1-2a2 2 0 0 0-2-1l-6 2c-2 0-3 1-3-2l-1-4c-3 0-3 2-4 3-1 3-2 6-6 7-3 1-2 3 0 4 3 1 2 3 2 5-1 4-3 8-2 12zm32 3c2 1 5 0 5-2 0-3-3-2-5-2l-10 1c-1 0-4-1-4 1s3 2 4 3l10-1zm0-22a53 53 0 0 0-13 4c-1 1-3 1-3 3l4 1 12-4c1 0 2 0 2-2a3 3 0 0 0-2-2zm9-9l-2-8-3-2-1 3 2 8c1 1 0 4 2 3 3 0 1-2 2-4zm-10 5l-5-10-2-1-1 2a30 30 0 0 0 4 9 2 2 0 0 0 3 1l1-1zM4 88l9-3c3-2 2-4 1-6-1-4 0-6 4-7a13 13 0 0 0 2 0c6-3 12 0 14 6 1 3 2 6 7 4 11-4 21 6 20 19 0 5 0 9 3 13 3 5-2 9-4 13h-6c-4-3-7-7-12-5l-4-1c-1-1-3 0-3 1l-5 5h-6c-4-2-7-8-13-7-2 1-4-2-5-4l-2-3v-4c5-6 5-6 0-11zm23 8c-1-3 1-5 3-7 3-3-6-3-3-7 0-3-1-4-3-4-3 0-2 2-2 4 1 5-1 8-6 9a8 8 0 0 0-3 1l-2 2a3 3 0 0 0 4 2l3-1c1-1 2-2 4-1s0 3 0 4l-2 4-7 7c-2 1-2 3 0 4 1 1 3 0 4-1 1-3 2-6 5-5 2 0 1 4 1 7s1 6 4 6c4-1 1-5 1-7-2-10-2-11 7-17l6-3c6-2 9 0 9 6 0 4-2 5-6 5s-7 2-9 6c-1 1 1 2 2 3 3 3 6 3 10 1a3 3 0 0 0 0-1c3-2 4-1 5 2a24 24 0 0 0 1 2c1 1 2 3 3 2v-4c-3-4-3-9-2-14 2-9-5-15-13-12l-14 7zM44 71c-7 0-16-9-17-18 0-3-1-5-5-4-5 0-6-5-10-6 2-3-1-8 3-10 3-1 3-3 1-5-3-2-5-6-3-10 1-3 4-5 8-5l24-1c4-1 6 2 7 5 2 2 4 5 1 8-2 1-1 2 0 3 4 4 4 8 1 13l-5 6c-3 5-3 5 2 9 3 2 2 6 3 9 1 2-2 3-3 4a13 13 0 0 1-7 2zM33 35l-1-1 11-10c1-1 4-2 3-4s-4-1-5-1l-17 1c-1 0-4-1-4 2 0 2 3 2 4 2l13-1 1 1a29 29 0 0 0-2 2L22 37c-1 0-2 1-2 3a3 3 0 0 0 4 2 51 51 0 0 0 6-2l12-3-6 8c-4 7-2 15 6 18 2 1 3 2 4 0s-1-2-2-3c-6-3-7-6-4-12l8-11 1-3c-1-2-2-2-4-1l-12 2zM121 98c0 5-4 9-10 9l-27 3c-5 1-11-4-11-10 1-7 1-7 8-8l29-4c6-1 11 3 11 10zm-36 5l27-4a2 2 0 0 0 2-2 2 2 0 0 0-2-2 12 12 0 0 0-4 0l-24 4c-2 0-3 0-3 2s2 2 4 2z" class="a"/><path d="M78 49c-1-4 1-8 2-12 0-2 1-4-2-5-2-1-3-3 0-4 4-1 5-4 6-7 1-1 1-3 4-3l1 4c0 3 1 2 3 2l6-2a2 2 0 0 1 2 1c1 2 0 2-1 2l-4 2c-8 1-11 6-11 13-1 7-4 14 2 21a2 2 0 0 1-1 3c-1 1-2 0-3-1-4-4-4-9-4-14zM110 52l-9 1c-2-1-5-1-5-3s3-1 4-1l10-1c2 0 5-1 5 2 0 2-3 3-5 2z" class="b"/><path d="M110 30a3 3 0 0 1 2 2c0 2-1 2-2 2a948 948 0 0 0-16 3c0-2 2-2 3-3a53 53 0 0 1 13-4zM119 21c-1 2 1 4-2 4-2 1-1-2-2-3l-2-8c0-1-1-2 1-3s2 1 3 2l2 8zM109 26l-1 1a2 2 0 0 1-3-1 30 30 0 0 1-4-9l1-2 2 1 5 10zM27 96l14-7c8-3 15 3 13 12-1 5-1 10 2 14 1 1 2 3 0 4s-2-1-3-2a24 24 0 0 1-1-2c-1-3-2-4-5-2a3 3 0 0 1 0 1c-3 2-7 2-10-1l-2-3c2-4 5-6 9-6s6-1 6-5c0-6-3-8-9-6l-6 3c-9 6-9 7-7 18 0 1 3 5-1 6-3 0-4-3-4-6s1-7-1-7c-3-1-4 3-5 5-1 1-3 2-4 1-2-1-1-3 0-4l7-7 2-3v-5c-1-1-3 1-4 1l-3 1a3 3 0 0 1-4-1c0-2 1-2 2-3a8 8 0 0 1 3-1c5-1 7-4 6-9 0-2-1-4 2-4 2 0 3 1 3 4-2 4 6 4 3 7-2 2-4 4-3 7zM33 35l12-2c2-1 3-1 4 1l-1 3-8 11c-3 6-2 9 4 12 1 1 3 1 2 3s-2 1-4 0c-8-3-10-11-5-18l5-8-12 3a51 51 0 0 1-6 2 3 3 0 0 1-4-2c0-2 1-3 2-3l14-11a29 29 0 0 1 2-2l-1-1-13 1c-2 0-4 1-4-2s3-2 4-2l17-1c1 0 4-1 5 1s-2 3-3 4L32 36v1l1-1zM85 103c-2 0-4 0-4-2s1-2 3-2l24-4a12 12 0 0 1 4 0 2 2 0 0 1 2 2 2 2 0 0 1-2 2l-27 4z" class="b"/><path d="M33 35l-1 1v-2z" class="a"/><path fill="none" d="M0 0h128v128H0z"/></svg>