<svg xmlns="http://www.w3.org/2000/svg" viewBox="0 0 128 128"><defs><style>.b{fill:#f8faf3}</style></defs><path fill="#8ba92f" d="M70 123c-3-4-6-7-11-4-2 1-3 0-5-2l-7-10c-1-2-1-3 1-4l7-4c3-1 3-3 1-4-6-3-7-8-6-14 1-2 1-3-1-3-11-2-20-11-20-22 0-4-1-5-5-5a11 11 0 0 1-11-14 5 5 0 0 1 0-2c4-5 4-5 1-10-4-8-2-14 7-15l30-2c6 0 6 6 9 9s0 4-1 6c-2 2-1 3 1 4 4 4 5 10 1 15a85 85 0 0 0-9 12c-1 2-2 4 1 4 8 3 7 10 8 16l-2 1a2 2 0 0 0 2 0c3-1 4-2 4-4 1-9 3-11 11-11 6 0 9 3 11 10 1 3 4 5 4 8 0 2 2 1 3 0 5-4 9-3 13 1 4 3 5 7 3 12a29 29 0 0 0 0 7c-1 2 0 4 3 3l2 2 4 6v6c-3 4-7 6-11 8h-6c-6-5-11-10-12-17-1-1-1-2-2-1l-3 2a6 6 0 0 0 0 3c1 7-2 11-8 13zm7-15c-2-5 1-8 5-9l8-5c2-1 4-4 6-3s1 5 1 7a22 22 0 0 0 3 12c2 3 4 6 8 4 1-1 3-1 2-2l-2-2c-3 1-4-1-5-3-2-6-2-12-1-18v-4c-2-2-3 0-5 0L80 95c-1 1-2 2-3 0-1-3 2-11 4-13 2-1 3-3 1-3-5-1-4-4-3-7 0-2 0-4-3-4s-3 2-3 4c1 6-2 9-8 10a21 21 0 0 0-5 2c-1 0-2 0-2 2s2 2 4 2l8-3c2 0 3 0 3 2 0 12 0 12-11 18l-2 1c-1 1-3 1-2 3a2 2 0 0 0 4 1l6-3c2-1 3-2 3 1s0 7 4 7c4-1 1-5 2-7zM46 38l-8 13c-4 6 3 19 11 19l3-1c0-2-1-2-2-3l-2-1c-5-3-7-8-4-13a82 82 0 0 1 10-15c1-1 2-2 1-4h-4l-17 3 13-13c2-2 5-3 4-6-1-2-4-1-6-1l-22 2-3 1c-1 1 1 2 2 3l4 1 16-2-18 16c-1 1-4 2-3 4 1 3 4 2 6 2l7-2c4 0 7-3 12-3z"/><path d="M77 108c-1 2 2 6-2 7-4 0-4-4-4-7s-1-2-3-1l-6 3a2 2 0 0 1-4-1c-1-2 1-3 2-3l2-1c11-6 11-6 11-18 0-2-1-2-3-2l-8 3c-2 0-4 0-4-2s1-2 2-2a21 21 0 0 1 5-2c6-1 9-4 8-10 0-2 0-4 3-4s3 2 3 4c-1 3-2 6 3 7 2 0 1 2-1 3-2 2-5 10-4 13 1 2 2 0 3 0l17-10c2 0 3-2 5 0v4c-1 6-1 12 1 18 1 2 2 4 5 3l2 1-2 3c-4 1-6-1-8-4a22 22 0 0 1-3-12c0-2 1-6-1-7s-4 2-6 3l-8 5c-4 1-7 4-5 9zM46 38c-5 0-8 3-12 3l-7 2c-2 0-5 1-6-2-1-2 2-3 3-4l18-16-16 2-4-1-2-3 3-1 22-2c2 0 5-1 6 1 1 3-2 5-4 6L34 36l17-3h4c1 2 0 3-1 4a82 82 0 0 0-10 15c-3 5-1 10 4 13l2 1c1 1 2 1 2 3l-3 1c-8 0-15-13-11-19l8-13z" class="b"/><path fill="none" d="M0 0h128v128H0z"/></svg>