<svg xmlns="http://www.w3.org/2000/svg" viewBox="0 0 128 128"><defs><style>.a{fill:#8ba92e}.b{fill:#f6f8f0}</style></defs><path d="M80 60c3 3 7 6 6 12l2 2c5 6 4 12-3 16-2 1-2 1-2 3 1 7-1 12-8 15-2 1-3 1-2 4 4 5 3 10-1 13-5 4-9 3-14-2l-16-12c-6-5-6-11 0-16l1-1c-4-5 2-10-2-15-5-5-1-13 7-15 3 0 5-1 7-4a8 8 0 0 1 11-2c4 2 8 2 12 2zM59 75c5-1 5 3 6 5 1 3-1 3-3 3l-9 3c-1 0-3 0-3 2s2 2 4 2l8-2c2 0 4-3 6 0 1 2 4 5 2 9-1 1-2 2 0 3s2 0 3-1c3-1 2-3 2-6-1-2-3-5-2-7s5-2 7-3l3-2a3 3 0 0 0-3-2 58 58 0 0 0-6 1c-2 1-3 2-5 0-1-2-2-4-1-6 0-2 3-1 4-1a20 20 0 0 0 4-1l2-2a2 2 0 0 0-3-2 46 46 0 0 0-7 1c-3 1-2-4-5-4-4 0 0 5-4 6l-7 1c-2 0-5-1-5 2 1 3 3 3 6 3l6-2zm8 42v-1a87 87 0 0 0-19-14 1 1 0 0 0-2 2 182 182 0 0 0 19 14c1 1 2 1 2-1zM17 27V14A10 10 0 0 1 28 4a10 10 0 0 1 10 11 164 164 0 0 0 0 23c0 3 0 5 4 3 8-3 15 0 16 7a9 9 0 0 1-4 9c-7 5-14 8-22 4-10-4-14-11-15-21V27zm8 1v12a16 16 0 0 0 9 13c5 3 9 2 13-1 1-1 4-2 2-4-1-1-3 0-4 1-7 4-13 1-15-7a22 22 0 0 1 0-3 114 114 0 0 1 0-23c0-2 0-4-3-4-2 0-2 2-2 4v12zM78 59a16 16 0 0 1-6-13l-2-7c-2-7 4-13 11-12 1 0 3 2 4 1 5-5 9-4 14-2 11 2 16 9 12 19-2 7-7 11-13 15a6 6 0 0 1-7 1c-3-3-7-1-11-2zm13-18l1 7c0 2 0 4 2 5s1-2 2-3l1-1c6-2 8-7 7-11-1-3-8-6-11-6a2 2 0 0 0-1 2c-1 5-6 6-9 10l-1-7a2 2 0 0 0-3-2l-1 3a42 42 0 0 1 2 10c0 2 1 3 2 3 2 1 2-1 3-2 1-3 3-6 6-8z" class="a"/><path d="M59 75l-6 2c-2 1-5 0-6-3 0-2 3-2 5-2l7-1c4-1 0-6 4-6 3 0 2 5 5 4a46 46 0 0 1 7-1 2 2 0 0 1 3 2l-2 2a20 20 0 0 1-4 1c-1 0-4-1-4 1-1 2 0 4 1 6 2 2 3 1 5 0a58 58 0 0 1 6-1 3 3 0 0 1 3 2l-3 2c-2 1-6 1-7 3s1 5 2 7c0 3 1 5-2 6-1 1-2 2-3 1v-3c2-4-1-7-2-9-2-3-4 0-6 0l-8 2c-2 0-4 0-4-2s2-2 3-2l9-3c2 0 4 0 3-3-1-2-1-6-6-5zM67 117c0 2-1 2-2 1a182 182 0 0 1-19-14 1 1 0 0 1 2-2 87 87 0 0 1 19 14v1zM25 28V16c0-2 0-4 2-4 3 0 3 2 3 4a114 114 0 0 0 0 23 22 22 0 0 0 0 3c2 8 8 11 15 7 1-1 3-2 4-1 2 2-1 3-2 4-4 3-8 4-13 1a16 16 0 0 1-9-13V28zM91 41c-3 2-5 5-6 8-1 1-1 3-3 2-1 0-2-1-2-3a42 42 0 0 0-2-10l1-3a2 2 0 0 1 3 2l1 7c3-4 8-5 9-10a2 2 0 0 1 1-2c3 0 11 4 11 6 1 4-1 9-7 11l-1 1c-1 1 0 4-2 3s-2-3-2-5l-1-7zm5 6a10 10 0 0 0 5-7c0-2 0-3-2-3s-4 0-4 2-1 5 1 8z" class="b"/><path d="M96 47c-2-3-1-5-1-8s2-3 4-2 2 1 2 3a10 10 0 0 1-5 7z" class="a"/><path fill="none" d="M0 0h128v128H0z"/></svg>