<svg xmlns="http://www.w3.org/2000/svg" viewBox="0 0 108 119"><defs><style>.a{fill:#da7924}.b{fill:#fcf7f2}</style></defs><path d="M0 13l5-1c3-1 6-2 6-6s1-5 5-5c4-1 9-3 12 3 1 2 3 1 4 1 6-1 12 3 13 9 0 2 1 2 2 2 4 2 7 5 7 10s-2 7-5 10c-3 1-7-1-10 3l14 2c5 1 6 5 6 8 0 4-1 7-5 9-5 3-10 1-15 1a56 56 0 0 1-7-2c-3 0-7-2-5 4l-1 2c-5 4-14 4-18 1-3-3-4-7-4-11a39 39 0 0 1 0-13c2-6 2-12-4-17zm11 32l2 11c0 2 2 3 4 2s1-2 0-4l-1-5c-1-6 1-11 2-16 1-12 1-13 13-16l3-1c1 0 3 0 2-2a2 2 0 0 0-3-2l-7 2c-2 0-4 1-4-2 0-2 0-4-2-4-3 0-2 2-2 4 0 4-3 6-7 6-1 0-3 0-3 2s2 2 4 2c3-1 3 1 3 4l-4 19zm35 6a2 2 0 0 1 1 0c1 1 3 1 3-1 1-2-1-2-3-2l-15-3-3 2c0 2 1 2 2 2l15 2zm-4-27a38 38 0 0 0-12 5c-1 0-4 0-2 3h4l12-4c1 0 2 0 2-2s-2-2-4-2zM90 119l-7-6a24 24 0 0 1-8-14c0-2 1-4-2-4-4 1-7-2-10-5l-5-1 3-6 1-3c6-3 2-6 0-10-4-8 0-12 8-13 9-1 18-3 27-2 6 0 6 6 9 9 2 2-1 3-2 5-2 4 2 4 4 5v10c-4 3-7 8-10 12-1 3-1 4 2 5 2 1 4 1 5 3 2 7 1 10-6 14a7 7 0 0 0-1 1zm1-36l-4 8c-5 8-3 15 5 19 2 1 4 2 5 0s-1-2-3-3c-6-3-7-7-3-13l7-12c1-1 3-2 2-4s-3 0-5 0l-14 3 2 1 11-14c1-1 3-2 3-4-1-2-3-1-5-1l-19 2c-1 0-4-2-4 2 0 2 3 2 5 2l14-2c0 3-2 3-3 4L72 82c-1 1-4 1-2 3a4 4 0 0 0 3 2 38 38 0 0 0 5-1l13-3z" class="a"/><path d="M11 45l4-19c0-3 0-5-3-4-2 0-4 0-4-2s2-2 3-2c4 0 7-2 7-6 0-2-1-4 2-4 2 0 2 2 2 4 0 3 1 3 4 2l7-2a2 2 0 0 1 3 2c1 2-1 2-2 2l-3 1c-12 3-12 4-13 16-1 5-3 10-2 16l1 5c1 2 2 3 0 4s-4 0-4-2l-2-11zM46 51l-15-2c-1 0-2 0-2-2l3-2 15 3c2 0 4 0 3 2 0 2-2 2-3 1a2 2 0 0 0-1 0z" class="b"/><path d="M42 24c2 0 4 0 4 2s-1 2-2 2l-12 4h-4c-2-3 1-3 2-3a38 38 0 0 1 12-5zM91 83l-13 3a38 38 0 0 1-5 1 4 4 0 0 1-4-2c-1-2 1-2 2-3l14-11c1-1 3-2 3-4l-14 2c-2 0-5 0-5-2 0-4 2-2 4-2l19-2c2 0 4-1 4 1 1 2-1 3-2 4L83 82l-2-1 14-3h5c2 1-1 3-2 4l-7 12c-4 6-3 10 3 13 2 1 4 1 3 3s-3 1-5 0c-8-4-10-11-5-19l4-8h1-1z" class="b"/><path d="M91 83h0z" class="a"/></svg>