<svg xmlns="http://www.w3.org/2000/svg" viewBox="0 0 128 128"><defs><style>.a{fill:#e35e55}.b{fill:#fdf6f5}</style></defs><path d="M81 96c-1-4 1-7 1-9a343 343 0 0 1 19-52c3-6 10-8 16-6 10 4 9 11 6 18l-14 35a71 71 0 0 0-3 20c0 2 1 4-2 4-6 1-12 5-19-1-3-3-4-6-4-9zm10-2c0 2 0 4 3 4s3-1 3-3l2-11a247 247 0 0 1 15-39c1-2 2-5-1-6s-3 1-4 3a327 327 0 0 0-15 41l-3 11zM50 40l-2 9c-6 12-11 25-15 38l-2 16c0 2-1 4-3 4-5 0-10 4-16-1s-7-8-5-15a346 346 0 0 1 21-59c1-2 2-3 4-3 4 0 8-2 12 1 6 3 6 3 6 10zM16 94c0 2 1 4 3 4 3 0 3-1 3-3a23 23 0 0 1 1-8 250 250 0 0 1 16-42c1-2 3-5 0-6-4-2-4 2-5 4l-9 23a283 283 0 0 0-9 28zM87 40c1 3 0 6-2 9a237 237 0 0 0-15 40l-1 14c0 1 0 3-2 3-6 1-12 5-18 0-5-4-7-9-5-17a333 333 0 0 1 15-42 81 81 0 0 1 4-9c1-3 1-8 5-9 6-1 12-1 18 3 2 2 0 5 1 8zM53 93c0 3 1 5 4 5 2 0 2-2 2-4a61 61 0 0 1 1-6 239 239 0 0 1 16-43c1-3 3-5 0-6s-4 1-5 3a324 324 0 0 0-14 39l-4 12z" class="a"/><path d="M91 94l3-11a327 327 0 0 1 15-41c0-2 1-5 4-3s2 4 1 6a247 247 0 0 0-15 39l-2 11c0 2 0 3-3 3s-3-2-3-4zM16 94a283 283 0 0 1 9-28l9-23c1-2 1-6 5-4 3 1 1 4 0 6a250 250 0 0 0-16 42 23 23 0 0 0-1 8c0 2 0 3-3 3-2 0-3-2-3-4zM53 93l4-12a324 324 0 0 1 14-39c1-2 2-5 5-3s1 3 0 6a239 239 0 0 0-16 43 61 61 0 0 0-1 6c0 2 0 4-2 4-3 0-3-2-4-5z" class="b"/><path fill="none" d="M0 0h128v128H0z"/></svg>