<svg xmlns="http://www.w3.org/2000/svg" viewBox="0 0 128 128"><defs><style>.a{fill:#e35d55}.b{fill:#fdf6f5}</style></defs><path d="M71 109c-1-4 2-9 4-13 1-2 2-3 0-4-3-2-4-5-4-8a146 146 0 0 1 0-21l2-18c0-3 1-5 3-5a6 6 0 0 0 3-1c6-6 12-2 18 2 3 3 4 8 3 13-2 9-2 19-2 28v1c-2 8 1 15 1 23 2 12-5 18-17 18-4-1-11-10-11-15zm10-38v11c0 3 3 6 5 6 3 0 2-4 2-6l1-18 1-11a5 5 0 0 0-4-7c-2 0-3 1-3 4 0 7-3 15-2 21zm9 36c-1-2 0-5-4-5-3 0-5 3-5 6a4 4 0 0 0 4 5c4 0 4-3 5-6zM42 78c11-1 23 9 18 24a57 57 0 0 1-6 13c-7 10-18 10-25 0l-2-1-11 1a3 3 0 0 1-4-2l-1-2c-6-11-6-12 3-21a41 41 0 0 1 28-12zm9 18c0-5-4-8-9-8-9 0-16 4-23 11-1 1-2 3 0 5 3 2 3-1 4-2 5-5 11-8 18-10 4-1 5 1 4 5a20 20 0 0 1-5 10c-1 1-3 2-1 4s4 2 5 0a31 31 0 0 0 7-15z" class="a"/><path d="M81 71c-1-6 2-14 2-21 0-3 1-4 3-4a5 5 0 0 1 4 7l-1 11-1 18c0 2 1 6-2 6-2 0-5-3-5-6V71zM90 107c-1 3-1 6-4 6a4 4 0 0 1-5-5c0-3 2-6 6-6 3 0 2 3 3 5zM51 96a31 31 0 0 1-7 15c-1 2-3 2-5 0s0-3 1-4a20 20 0 0 0 5-10c1-4 0-6-4-5-7 2-13 5-18 10-1 1-2 4-4 2s-1-4 0-5c7-7 14-11 23-11 5 0 9 3 9 8z" class="b"/><path fill="none" d="M0 0h128v128H0z"/></svg>